<svg width="20" height="20" viewBox="0 0 20 20" fill="none" xmlns="http://www.w3.org/2000/svg">
<path d="M17.2769 10.977L17.2768 10.9769C16.4497 7.66472 13.4616 5.3 10 5.3C9.54846 5.3 9.10517 5.3402 8.67382 5.41741L8.84752 5.591C9.22393 5.53104 9.60896 5.5 10 5.5C13.3692 5.5 16.2777 7.8016 17.0828 11.0254L17.2769 10.977ZM17.2769 10.977C17.2902 11.0305 17.2577 11.0847 17.2042 11.0982L17.2769 10.977ZM5.69071 6.66113L6.17775 6.31917L5.75695 5.89837L2.54224 2.68366L2.51334 2.65018C2.49112 2.61213 2.4967 2.56188 2.52929 2.52929C2.56834 2.49024 2.63166 2.49024 2.67071 2.52929L2.67074 2.52931L6.11585 5.97397L6.11626 5.97438L6.73043 6.58705L6.72968 6.58815L7.02155 6.87989L12.2643 12.1203L12.2634 12.1214L12.5799 12.4379L17.4577 17.3164L17.4867 17.3499C17.5089 17.3879 17.5033 17.4381 17.4708 17.4706L17.4707 17.4707C17.4317 17.5098 17.3684 17.5098 17.3293 17.4707C17.3293 17.4707 17.3293 17.4707 17.3293 17.4707L12.5939 12.7351L12.2438 12.385L11.8903 12.7316C11.4027 13.2097 10.7362 13.5037 10 13.5037C8.50883 13.5037 7.30001 12.2949 7.30001 10.8037C7.30001 10.0676 7.59397 9.40104 8.07204 8.91352L8.41869 8.56002L8.06861 8.20991L6.6209 6.76208L6.33307 6.47422L5.99283 6.69772C4.49664 7.68052 3.37312 9.20404 2.91816 11.0215L2.91816 11.0215C2.90476 11.075 2.85056 11.1076 2.79688 11.0943C2.7433 11.0808 2.71073 11.0265 2.72414 10.9729L2.2391 10.8515L2.72414 10.9729C3.17162 9.18533 4.24855 7.6737 5.69071 6.66113ZM17.204 11.0982C17.1504 11.1115 17.0962 11.0789 17.0828 11.0254L17.204 11.0982Z" fill="#97A0AF" stroke="#97A0AF"/>
</svg>