<svg width="541" height="541" viewBox="0 0 541 541" fill="none" xmlns="http://www.w3.org/2000/svg">
<path d="M523.112 209.55C517.264 137.449 514.34 101.399 500.73 78.0752C461.761 11.2917 348.463 -4.59207 276.907 1.49898C181.11 9.65125 71.5191 64.7216 23.279 171.049C-20.5356 267.623 -0.332494 376.94 65.6867 448.45C186.711 579.539 436.355 556.134 497.339 470.116C521.676 435.787 523.43 380.956 526.009 300.412C527.248 261.64 524.829 230.743 523.112 209.55Z" fill="#F4F7FA"/>
<path d="M477.208 44.412C471.015 39.2879 461.62 36.4971 453.678 35.9335C397.382 31.9442 389.166 149.618 397.795 175.916C406.424 202.214 400.833 210.849 356.495 224.607C312.158 238.366 333.428 264.857 338.832 280.349C344.236 295.841 354.938 308.929 322.616 324.322C290.295 339.716 301.527 349.254 301.527 349.254C301.527 349.254 361.133 410.224 357.841 390.704C354.548 371.184 360.514 341.71 413.955 339.469C436.974 338.504 472.223 327.524 480.028 302.876C481.846 297.136 483.11 288.37 481.729 282.43C479.81 274.189 474.402 267.696 471.399 259.94C464.401 241.865 481.954 228.63 492.056 216.548C497.331 210.241 502.601 203.773 506.639 196.582C515.025 181.652 511.885 165.64 502.754 151.878C498.375 145.279 492.291 138.277 490.381 130.405C488.329 121.949 490.118 110.396 490.605 101.698C490.987 94.8754 491.637 88.0799 491.253 81.24C490.543 68.5214 487.563 52.9792 477.208 44.412Z" fill="url(#paint0_linear_121_273)"/>
<g opacity="0.8">
<g opacity="0.8">
<path opacity="0.8" d="M296.84 383.475C296.454 383.614 296.016 383.449 295.821 383.077C295.609 382.67 295.765 382.166 296.173 381.954C296.423 381.823 321.517 368.623 349.51 346.884C375.304 326.853 408.907 295.268 422.512 258.55C433.875 227.885 444.237 177.188 450.944 119.462C456.958 67.6973 457.908 29.414 455.352 22.3078C455.196 21.8755 455.422 21.3988 455.854 21.2425C456.286 21.0861 456.763 21.3119 456.919 21.7442C459.909 30.0586 458.012 73.0646 452.6 119.655C445.88 177.508 435.483 228.344 424.075 259.129C410.33 296.224 376.483 328.051 350.509 348.217C322.401 370.042 297.197 383.297 296.946 383.428C296.91 383.446 296.875 383.461 296.84 383.475Z" fill="white"/>
</g>
<g opacity="0.8">
<path opacity="0.8" d="M450.852 129.496C450.421 129.65 449.983 129.531 449.825 129.1C449.616 128.531 428.63 72.0689 401.567 59.3214C401.151 59.1264 400.983 58.6555 401.178 58.2386C401.374 57.8218 401.874 57.6577 402.289 57.8526C429.971 70.8917 450.522 126.168 451.384 128.521C451.543 128.953 451.288 129.339 450.856 129.494C450.854 129.496 450.852 129.496 450.852 129.496Z" fill="white"/>
</g>
<g opacity="0.8">
<path opacity="0.8" d="M440.619 194.974C440.298 195.09 439.924 194.999 439.694 194.719C439.403 194.364 439.453 193.839 439.808 193.547C439.963 193.42 455.414 180.746 474.478 170.11C500.238 155.739 519.98 151.726 533.154 158.186C533.567 158.389 533.737 158.887 533.534 159.3C533.332 159.713 532.834 159.883 532.421 159.68C502.108 144.819 441.474 194.329 440.866 194.831C440.791 194.895 440.706 194.943 440.619 194.974Z" fill="white"/>
</g>
<g opacity="0.8">
<path opacity="0.8" d="M373.344 328.814C373.259 328.845 373.171 328.86 373.076 328.862C372.617 328.87 372.238 328.503 372.231 328.042C372.227 327.801 371.798 303.575 366.728 278.049C362.079 254.646 352.479 225.332 333.148 218.577C332.714 218.424 332.485 217.949 332.637 217.517C332.788 217.083 333.264 216.853 333.697 217.006C349.816 222.637 361.479 243.074 368.365 277.748C373.462 303.419 373.891 327.774 373.894 328.017C373.902 328.383 373.67 328.696 373.344 328.814Z" fill="white"/>
</g>
<g opacity="0.8">
<path opacity="0.8" d="M407.746 289.675C407.408 289.796 407.018 289.688 406.794 289.385C406.52 289.015 406.599 288.494 406.968 288.221C409.649 286.239 472.883 239.752 497.542 244.191C497.996 244.272 498.295 244.706 498.214 245.158C498.133 245.611 497.701 245.912 497.247 245.829C473.286 241.516 408.608 289.078 407.958 289.559C407.892 289.611 407.819 289.648 407.746 289.675Z" fill="white"/>
</g>
</g>
<path d="M526.615 217.731C522.522 210.814 514.624 205.009 507.342 201.792C455.715 178.989 408.168 286.941 407.388 314.607C406.608 342.274 398.425 348.507 352.05 346.452C305.672 344.397 316.723 376.523 316.567 392.93C316.41 409.337 322.052 425.273 286.428 428.822C250.804 432.371 258.146 445.146 258.146 445.146C258.146 445.146 293.606 522.689 297.112 503.206C300.619 483.723 316.206 458.005 367.252 473.982C389.239 480.862 426.125 482.458 441.81 461.906C445.463 457.12 449.618 449.299 450.327 443.241C451.309 434.838 448.418 426.898 448.215 418.583C447.744 399.206 468.743 392.691 482.335 384.741C489.432 380.592 496.581 376.288 502.815 370.888C515.757 359.676 518.222 343.547 514.286 327.507C512.399 319.816 509.043 311.168 509.909 303.114C510.84 294.464 516.433 284.196 519.833 276.175C522.5 269.885 525.413 263.709 527.366 257.144C531.004 244.929 533.461 229.296 526.615 217.731Z" fill="url(#paint1_linear_121_273)"/>
<g opacity="0.8">
<g opacity="0.8">
<path opacity="0.8" d="M242.156 475.759C241.747 475.759 241.39 475.456 241.332 475.039C241.27 474.584 241.589 474.163 242.044 474.101C242.324 474.063 270.403 470.133 304.101 459.148C335.151 449.027 377.46 430.675 402.687 400.727C423.756 375.714 450.662 331.516 476.505 279.464C499.678 232.789 513.526 197.084 513.526 189.532C513.526 189.073 513.899 188.7 514.358 188.7C514.817 188.7 515.19 189.073 515.19 189.532C515.19 198.368 498.852 238.195 477.995 280.205C452.094 332.371 425.109 376.691 403.959 401.8C378.473 432.055 335.853 450.552 304.587 460.74C270.753 471.766 242.55 475.711 242.268 475.749C242.233 475.757 242.195 475.759 242.156 475.759Z" fill="white"/>
</g>
<g opacity="0.8">
<path opacity="0.8" d="M473.025 289.048C472.568 289.048 472.195 288.701 472.193 288.243C472.189 287.637 471.547 227.362 450.394 206.209C450.068 205.885 450.068 205.362 450.394 205.038C450.718 204.713 451.245 204.715 451.571 205.04C473.208 226.677 473.842 285.727 473.859 288.232C473.863 288.691 473.492 289.048 473.031 289.048C473.027 289.048 473.025 289.048 473.025 289.048Z" fill="white"/>
</g>
<g opacity="0.8">
<path opacity="0.8" d="M441.237 347.03C440.895 347.03 440.575 346.818 440.453 346.478C440.299 346.046 440.523 345.569 440.957 345.413C441.144 345.346 459.973 338.647 481.514 335.09C510.616 330.282 530.551 333.189 540.764 343.724C541.085 344.054 541.075 344.581 540.745 344.902C540.415 345.222 539.888 345.212 539.568 344.882C516.072 320.642 442.261 346.714 441.518 346.98C441.424 347.015 441.329 347.03 441.237 347.03Z" fill="white"/>
</g>
<g opacity="0.8">
<path opacity="0.8" d="M332.649 450.212C332.56 450.212 332.469 450.197 332.378 450.168C331.944 450.019 331.711 449.546 331.861 449.11C331.938 448.88 339.734 425.941 343.599 400.204C347.143 376.608 348.029 345.775 332.124 332.877C331.767 332.587 331.713 332.062 332.002 331.705C332.292 331.348 332.817 331.292 333.174 331.583C346.436 342.337 350.497 365.516 345.242 400.472C341.353 426.354 333.515 449.417 333.436 449.649C333.318 449.994 332.994 450.212 332.649 450.212Z" fill="white"/>
</g>
<g opacity="0.8">
<path opacity="0.8" d="M378.261 425.022C377.902 425.022 377.572 424.788 377.463 424.429C377.33 423.989 377.581 423.524 378.021 423.393C381.213 422.436 456.448 400.086 478.151 412.608C478.549 412.838 478.686 413.347 478.456 413.745C478.226 414.142 477.717 414.279 477.319 414.05C456.23 401.883 379.274 424.755 378.5 424.987C378.421 425.01 378.34 425.022 378.261 425.022Z" fill="white"/>
</g>
</g>
<path d="M353.555 23.2597L352.96 27.5172C350.986 27.6079 349.045 27.8627 347.155 28.2873L345.545 24.3154C345.107 23.2326 343.866 22.7173 342.776 23.167L335.95 25.979C334.857 26.4287 334.324 27.6755 334.761 28.7601L336.378 32.7822C334.724 33.836 333.161 35.0288 331.705 36.3489L328.278 33.6893C327.351 32.9714 326.008 33.1489 325.277 34.0869L320.691 39.9541C319.956 40.894 320.112 42.2411 321.038 42.961L324.48 45.636C323.563 47.3575 322.793 49.1756 322.171 51.0728L317.804 50.4995C316.63 50.3451 315.538 51.177 315.364 52.3581L314.266 59.7577C314.09 60.9427 314.901 62.0312 316.076 62.1856L320.457 62.7608C320.51 64.7583 320.728 66.723 321.116 68.6357L317.005 70.3495C315.897 70.8108 315.353 72.0865 315.789 73.1962L318.527 80.1558C318.966 81.2713 320.222 81.7982 321.334 81.3331L325.447 79.6115C326.481 81.2945 327.66 82.8809 328.969 84.3554L326.228 87.9143C325.487 88.8774 325.645 90.2554 326.583 90.9927L332.458 95.6015C333.398 96.3387 334.763 96.1535 335.502 95.1865L338.21 91.6508C339.939 92.5714 341.768 93.3376 343.677 93.9494L343.062 98.3614C342.894 99.5695 343.718 100.675 344.903 100.83L352.32 101.803C353.507 101.959 354.601 101.104 354.767 99.8957L355.365 95.5166C357.382 95.4297 359.364 95.1692 361.292 94.7349L362.919 98.7802C363.371 99.9034 364.635 100.434 365.743 99.9652L372.66 97.0335C373.766 96.5646 374.293 95.2772 373.839 94.1578L372.212 90.1415C373.901 89.0511 375.491 87.814 376.966 86.4456L380.347 89.0742C381.293 89.8096 382.648 89.6243 383.373 88.6612L387.903 82.6551C388.627 81.6959 388.447 80.3275 387.503 79.5961L384.153 76.9983C385.066 75.2285 385.824 73.3583 386.426 71.411L390.615 71.961C391.79 72.1154 392.867 71.2759 393.019 70.087L393.971 62.6681C394.123 61.4851 393.295 60.4004 392.122 60.246L387.945 59.6979C387.859 57.6753 387.604 55.6912 387.175 53.7632L391.049 52.142C392.137 51.6865 392.653 50.4281 392.201 49.3319L389.372 42.492C388.92 41.3996 387.673 40.8824 386.585 41.336L382.688 42.961C381.627 41.2954 380.426 39.7244 379.093 38.2711L381.667 34.911C382.383 33.975 382.208 32.6375 381.277 31.9215L375.458 27.4497C374.528 26.7356 373.194 26.9112 372.477 27.8434L369.886 31.2074C368.169 30.3157 366.355 29.5746 364.461 28.9879L365.038 24.7631C365.197 23.6013 364.384 22.534 363.22 22.3815L355.95 21.4281C354.792 21.2795 353.717 22.0959 353.555 23.2597ZM327.923 57.7467C330.024 43.1251 343.444 32.8749 357.909 34.7721C372.374 36.6692 382.534 50.0132 380.59 64.6541C378.635 79.3857 365.187 89.8366 350.563 87.9201C335.94 86.0017 325.809 72.457 327.923 57.7467Z" fill="#D8DEE8"/>
<path d="M242.073 20.9509L241.154 27.5341C238.103 27.673 235.099 28.0668 232.177 28.723L229.69 22.5817C229.01 20.9065 227.094 20.1113 225.409 20.8061L214.854 25.1544C213.165 25.8511 212.341 27.7753 213.017 29.4564L215.518 35.6748C212.961 37.3037 210.542 39.1468 208.294 41.1907L202.986 37.0779C201.556 35.9681 199.478 36.2441 198.347 37.6916L191.256 46.7626C190.119 48.2159 190.36 50.2983 191.792 51.4119L197.113 55.5498C195.697 58.2113 194.504 61.0233 193.543 63.9549L186.79 63.0691C184.978 62.8317 183.289 64.117 183.017 65.9428L181.32 77.3857C181.048 79.2192 182.303 80.9002 184.121 81.1376L190.893 82.0254C190.974 85.1134 191.31 88.1531 191.912 91.1099L185.557 93.7598C183.843 94.4739 183.001 96.4444 183.677 98.1621L187.911 108.922C188.589 110.645 190.532 111.462 192.25 110.742L198.609 108.08C200.207 110.682 202.031 113.135 204.056 115.414L199.819 120.917C198.673 122.407 198.918 124.537 200.369 125.676L209.454 132.802C210.907 133.942 213.017 133.655 214.161 132.161L218.347 126.695C221.02 128.119 223.851 129.304 226.802 130.25L225.849 137.073C225.588 138.941 226.862 140.651 228.698 140.89L240.166 142.394C241.999 142.635 243.694 141.313 243.948 139.445L244.875 132.674C247.994 132.541 251.059 132.138 254.038 131.466L256.553 137.721C257.252 139.458 259.207 140.278 260.919 139.553L271.615 135.021C273.323 134.297 274.139 132.306 273.437 130.572L270.92 124.362C273.531 122.677 275.99 120.762 278.271 118.647L283.498 122.712C284.959 123.848 287.053 123.561 288.176 122.075L295.18 112.789C296.298 111.307 296.022 109.19 294.562 108.059L289.382 104.045C290.795 101.306 291.967 98.4149 292.897 95.406L299.374 96.2552C301.192 96.4946 302.858 95.1957 303.093 93.3583L304.564 81.8865C304.799 80.0549 303.518 78.3797 301.705 78.1423L295.248 77.295C295.114 74.1684 294.721 71.0998 294.057 68.1198L300.047 65.6128C301.732 64.9083 302.529 62.9629 301.827 61.2684L297.452 50.692C296.753 49.0033 294.825 48.2043 293.144 48.9049L287.12 51.4158C285.48 48.8392 283.621 46.4113 281.562 44.1667L285.542 38.9712C286.649 37.5256 286.379 35.4567 284.938 34.3489L275.94 27.4357C274.502 26.3317 272.439 26.6038 271.329 28.0455L267.323 33.2469C264.665 31.8688 261.861 30.7224 258.935 29.8134L259.828 23.2804C260.074 21.4836 258.815 19.8354 257.018 19.5999L245.776 18.1254C243.983 17.8899 242.323 19.1541 242.073 20.9509ZM202.44 74.2746C205.688 51.6667 226.438 35.8176 248.802 38.7512C271.167 41.6848 286.875 62.3164 283.872 84.9551C280.85 107.731 260.058 123.893 237.448 120.926C214.837 117.962 199.171 97.0176 202.44 74.2746Z" fill="#D8DEE8"/>
<path d="M231.318 84.6985L182.15 493.382C181.413 499.509 185.636 505.002 191.553 505.589L396.348 528.073C408.893 528.853 415.762 522.443 416.538 515.928L468.159 81.4291C468.929 74.9502 462.774 69.0811 450.175 69.0811L243.518 73.4332C237.533 73.5355 232.052 78.6036 231.318 84.6985Z" fill="url(#paint2_linear_121_273)"/>
<path d="M222.101 83.9965L172.662 494.724C171.921 500.882 176.159 506.404 182.096 506.994L394.41 528.134C401.067 528.796 407.168 523.98 407.945 517.432L459.856 80.6885C460.63 74.1748 455.742 68.9407 449.012 69.0546L234.343 72.6772C228.341 72.7756 222.838 77.8707 222.101 83.9965Z" fill="url(#paint3_linear_121_273)"/>
<path d="M226.13 106.651L180.306 487.476C179.613 493.23 183.583 498.379 189.14 498.919L388.814 518.329C395.002 518.931 400.672 514.436 401.398 508.339L449.372 104.89C450.094 98.8265 445.554 93.9185 439.303 93.986L237.579 96.1341C231.964 96.192 226.819 100.926 226.13 106.651Z" fill="#D8DEE8"/>
<path d="M333.208 83.7126C332.946 85.8992 334.515 87.6497 336.715 87.6208C338.917 87.5938 340.917 85.795 341.179 83.6045C341.442 81.4139 339.867 79.6634 337.665 79.6963C335.463 79.7291 333.469 81.5278 333.208 83.7126Z" fill="url(#paint4_linear_121_273)"/>
<path d="M260.651 362.286C301.528 286.709 362.595 264.086 380.98 186.195C390.918 144.093 384.147 103.794 372.743 70.3399L449.014 69.0526C455.744 68.9387 460.633 74.1748 459.859 80.6866L407.948 517.43C407.17 523.98 401.069 528.796 394.413 528.132L227.513 511.514C226.276 443.795 242.428 395.974 260.651 362.286Z" fill="white"/>
<path d="M20.5293 127.338C20.5293 87.1792 55.5605 54.6299 97.5996 54.6338C138.396 54.6376 170.592 85.475 170.592 123.509C170.592 161.544 138.396 194.023 97.5996 196.11C55.5586 198.26 20.5293 167.498 20.5293 127.338Z" fill="url(#paint5_linear_121_273)"/>
<path d="M25.0635 124.136C25.0635 83.9771 59.0815 51.4278 99.9027 51.4316C139.518 51.4355 170.783 82.2729 170.783 120.307C170.783 158.342 139.518 190.821 99.9027 192.908C59.0795 195.058 25.0635 164.294 25.0635 124.136Z" fill="url(#paint6_linear_121_273)"/>
<g opacity="0.5">
<path opacity="0.5" d="M36.7061 123.829C36.7061 90.0892 65.2853 62.7413 99.5832 62.7471C132.866 62.7509 159.135 88.6591 159.135 120.614C159.135 152.569 132.868 179.857 99.5832 181.609C65.2853 183.416 36.7061 157.569 36.7061 123.829Z" fill="white"/>
</g>
<path opacity="0.5" d="M97.2237 67.931C130.506 67.9349 156.775 93.8431 156.775 125.798C156.775 133.396 155.276 140.724 152.564 147.514C156.764 139.339 159.138 130.189 159.138 120.614C159.138 88.6591 132.871 62.7509 99.586 62.7471C73.1336 62.7451 50.0972 79.0188 40.9355 101.939C51.3092 81.7884 72.8132 67.9291 97.2237 67.931Z" fill="white"/>
<path d="M71.1494 115.571V145.019C71.1494 153.532 78.3116 160.248 87.1201 160.019L108.962 159.449C117.664 159.222 124.697 152.21 124.697 143.785V114.648L71.1494 115.571ZM91.2638 146.015L95.3225 133.715C93.5836 132.817 92.4063 131.05 92.4063 128.99C92.4063 125.968 94.9423 123.468 98.0651 123.411C101.184 123.351 103.71 125.748 103.71 128.764C103.71 130.82 102.537 132.632 100.804 133.601L104.847 145.698L91.2638 146.015Z" fill="white"/>
<path d="M118.488 112.095C116.171 112.134 114.291 110.341 114.291 108.089C114.291 99.4325 107.024 92.4846 98.0634 92.6004C89.0716 92.7162 81.7318 99.8977 81.7318 108.608C81.7318 110.874 79.8269 112.742 77.4743 112.782C75.1197 112.821 73.209 111.014 73.209 108.745C73.209 95.4877 84.3894 84.5755 98.0653 84.423C111.668 84.2705 122.678 94.8276 122.678 107.957C122.678 110.204 120.804 112.057 118.488 112.095Z" fill="white"/>
<path d="M169.076 280.056C169.076 280.056 167.589 274.486 168.643 273.062C169.695 271.637 176.132 265.944 175.514 267.8C174.894 269.657 173.966 270.894 173.966 270.894C173.966 270.894 177.432 272.504 175.203 274.916C172.976 277.331 172.231 277.887 172.108 280.054C171.986 282.221 170.562 282.964 169.076 280.056Z" fill="url(#paint7_linear_121_273)"/>
<path d="M107.25 520.488C107.25 520.488 106.462 525.306 106.563 527.019C106.663 528.733 125.689 529.609 125.88 528.326C126.071 527.042 122.736 524.999 120.387 524.279C118.038 523.557 111.164 521.635 111.164 521.635L107.25 520.488Z" fill="url(#paint8_linear_121_273)"/>
<path d="M111.866 515.687L111.26 521.677C111.26 521.677 109.05 523.138 107.103 522.011L106.128 515.492L111.866 515.687Z" fill="url(#paint9_linear_121_273)"/>
<path d="M73.3033 528.297C73.3033 528.297 72.5159 533.115 72.6163 534.828C72.7166 536.542 91.7425 537.419 91.9335 536.135C92.1265 534.852 88.7896 532.808 86.4408 532.088C84.092 531.368 77.2174 529.444 77.2174 529.444L73.3033 528.297Z" fill="url(#paint10_linear_121_273)"/>
<path d="M77.9224 523.495L77.3164 529.486C77.3164 529.486 75.1066 530.947 73.1592 529.82L72.1846 523.3L77.9224 523.495Z" fill="url(#paint11_linear_121_273)"/>
<path d="M108.414 359.307C110.612 363.766 112.812 368.224 115.011 372.682C116.778 398.125 117.658 425.794 117.093 455.382C116.672 477.396 115.497 498.249 113.806 517.823C110.824 517.686 107.843 517.549 104.861 517.412C100.549 508.855 95.4597 495.891 94.9907 479.887C94.5025 463.195 99.5629 460.977 99.2425 444.995C98.8256 424.278 90.1388 418.751 85.5106 393.833C83.7408 384.303 82.55 371.856 83.9647 356.756C92.1151 357.607 100.263 358.458 108.414 359.307Z" fill="url(#paint12_linear_121_273)"/>
<path opacity="0.3" d="M83.9685 356.756C88.3689 357.215 92.7693 357.675 97.1716 358.134C105.094 371.92 107.306 386.267 105.914 392.615C103.948 401.595 98.7445 404.471 99.0321 413.486C99.3158 422.406 104.571 424.72 107.904 435.233C110.213 442.513 109.603 449.206 108.29 462.295C105.646 488.661 99.2791 496.725 104.612 505.369C106.127 507.826 108.858 510.75 114.208 512.983C114.076 514.6 113.947 516.221 113.81 517.821C110.828 517.686 107.846 517.547 104.865 517.412C100.553 508.855 95.4635 495.891 94.9945 479.887C94.5063 463.195 99.5667 460.977 99.2463 444.995C98.8294 424.278 90.1425 418.753 85.5144 393.835C83.7446 384.305 82.5519 371.858 83.9685 356.756Z" fill="url(#paint13_linear_121_273)"/>
<path d="M96.5805 367.334C92.4522 389.846 88.8064 413.938 85.9616 439.489C82.5263 470.34 80.6928 499.425 79.9729 526.427C76.6996 526.52 73.4283 526.612 70.155 526.705C57.2588 501.193 56.4714 483.896 58.33 472.634C59.046 468.296 60.9934 459.787 61.4373 447.068C61.7461 438.203 61.1806 431.456 60.4742 423.346C58.9263 405.565 57.0465 401.684 56.7763 388.084C56.5216 375.319 56.4695 368.861 60.1133 365.092C69.7131 355.158 94.6871 366.454 96.5805 367.334Z" fill="url(#paint14_linear_121_273)"/>
<path d="M167.365 279.198C169.542 279.045 171.717 278.895 173.894 278.742C179.028 299.491 175.345 319.617 163.758 327.019C145.652 338.583 112.003 316.796 104.711 293.07C101.512 282.656 102.239 267.629 108.637 264.709C110.413 263.899 113.169 263.773 119.138 267.124C136.965 277.133 137.434 296.05 146.498 297.652C150.524 298.366 157.032 295.797 167.365 279.198Z" fill="url(#paint15_linear_121_273)"/>
<path d="M117.515 377.247C120.651 372.043 116.712 367.025 115.817 357.169C114.802 345.996 119.106 344.136 123.361 325.621C126.192 313.308 128.908 301.487 125.666 287.649C124.112 281.017 121.476 269.769 112.165 264.336C107.362 261.532 100.802 261.814 87.8802 262.489C71.8999 263.325 63.9117 263.742 57.9519 266.88C57.0795 267.34 38.9531 277.2 37.7044 293.273C36.4344 309.631 54.2482 311.83 56.624 333.644C57.6913 343.437 55.7903 358.499 54.557 368.266C53.3739 377.646 52.5576 380.047 54.4104 382.888C58.8725 389.734 72.531 387.782 99.8481 383.882C110.563 382.35 115.174 381.13 117.515 377.247Z" fill="url(#paint16_linear_121_273)"/>
<path d="M75.9522 330.134C74.7961 334.386 70.6428 337.56 67.7516 347.903C67.1283 350.136 62.6796 366.037 68.4484 369.951C71.7795 372.211 74.771 367.929 82.8577 367.369C96.8694 366.4 103.545 378.177 112.699 374.96C114.288 374.4 116.384 373.211 118.478 370.478C118.894 372.941 118.823 375.081 117.518 377.249C115.179 381.132 110.567 382.352 99.8512 383.882C72.5342 387.783 58.8756 389.734 54.4135 382.888C52.5626 380.049 53.3771 377.646 54.5602 368.266C55.7934 358.497 57.6945 343.435 56.6272 333.644C54.2514 311.83 36.4356 309.631 37.7075 293.273C38.0472 288.9 39.6548 285.007 41.8068 281.616C64.405 290.76 79.5825 316.772 75.9522 330.134Z" fill="url(#paint17_linear_121_273)"/>
<path d="M47.4082 362.31L51.9302 365.197C52.7427 364.259 54.6225 362.368 57.5561 361.723C60.8622 360.996 64.6585 362.04 64.7453 363.094C64.8167 363.939 62.5046 364.792 62.1475 364.923C59.2622 365.989 57.1218 365.103 55.9561 366.263C55.5431 366.672 55.0297 367.436 53.8466 368.142C53.5359 368.328 53.2117 368.492 53.0399 368.559C51.1138 369.308 47.8116 365.956 47.5279 365.662L47.4082 362.31Z" fill="url(#paint18_linear_121_273)"/>
<path d="M60.767 303.009C64.0383 295.175 66.3041 283.181 61.1376 265.369C27.0964 278.782 9.73613 310.581 16.5143 335.786C22.1016 356.566 42.4321 366.687 46.9676 368.818C48.0233 366.415 49.079 364.014 50.1328 361.613C44.8774 355.762 38.9543 347.108 39.7919 337.232C40.9537 323.54 54.1452 318.868 60.767 303.009Z" fill="url(#paint19_linear_121_273)"/>
<path d="M87.0428 246.374C87.0428 246.374 86.7746 252.328 84.9256 256.788C83.2543 260.818 74.4689 263.352 72.6876 264.251C70.9062 265.15 76.0245 267.781 81.1641 268.296C86.3036 268.814 100.979 267.646 103.625 265.699C106.271 263.751 101.498 263.898 97.8315 262.551C94.1626 261.204 92.0415 254.03 92.69 250.774C93.3384 247.516 87.0428 246.374 87.0428 246.374Z" fill="url(#paint20_linear_121_273)"/>
<path d="M95.171 244.214C97.8383 241.593 98.2107 241.288 98.5002 240.383C99.666 236.749 96.8462 231.77 93.1484 230.544C92.9554 230.48 90.4754 229.687 89.5297 230.762C88.7249 231.675 89.9079 232.937 89.3463 234.699C88.8194 236.348 87.3912 236.471 84.7414 238.633C82.5585 240.412 81.2037 241.52 80.891 243.077C80.2464 246.287 84.1315 250.938 87.5707 250.813C88.8078 250.767 89.1456 250.135 95.171 244.214Z" fill="url(#paint21_linear_121_273)"/>
<path d="M87.9074 251.309C87.9074 251.309 90.7426 254.518 95.06 253.457C98.9257 252.507 97.9395 243.633 95.1101 242.217C94.1664 241.744 92.4506 241.782 91.1614 242.404C90.399 242.771 90.1867 243.153 88.9303 243.728C87.7723 244.259 87.4037 244.185 87.093 244.56C86.7031 245.027 86.5352 246.034 87.7569 248.462C86.8768 247.839 85.9292 247.707 85.3483 248.12C85.2556 248.186 85.0202 248.418 84.9179 248.721C84.5492 249.819 85.6918 250.936 87.9074 251.309Z" fill="url(#paint22_linear_121_273)"/>
<path d="M411.231 131.157L412.229 136.544L391.688 136.592L213.434 137.015C208.848 137.026 204.631 140.817 204.002 145.482L161.45 429.871C160.817 434.579 168.143 441.764 172.701 442.115L251.783 448.193V448.096L370.076 457.171C370.078 457.171 370.08 457.171 370.082 457.171L370.367 457.291C375.418 457.681 380.052 454.016 380.708 449.044C380.708 449.042 380.708 449.065 380.71 449.063L420.56 145.428C421.209 140.502 416.311 131.144 411.231 131.157Z" fill="url(#paint23_linear_121_273)"/>
<path d="M376.68 443.127C376.028 448.101 371.396 451.818 366.345 451.43L168.475 436.237C163.918 435.888 160.747 431.789 161.38 427.081L200.063 139.667C200.69 135.003 204.907 131.212 209.489 131.199L408.477 130.65C413.555 130.637 417.156 134.618 416.511 139.544L376.68 443.127Z" fill="url(#paint24_linear_121_273)"/>
<path d="M379.308 285.066C378.984 287.528 376.683 289.366 374.171 289.273L200.022 282.918C197.723 282.835 196.106 280.941 196.422 278.589L199.846 253.211C200.163 250.861 202.261 249.27 204.561 249.334L378.862 254.174C381.379 254.244 383.16 256.021 382.838 258.482L379.308 285.066Z" fill="white"/>
<path d="M372.565 336.63C372.241 339.098 369.939 341.204 367.426 341.078L193.408 332.482C191.111 332.368 189.513 330.17 189.83 327.816L193.281 301.948C193.597 299.595 195.715 297.578 198.013 297.671L372.137 304.694C374.65 304.797 376.427 307.07 376.103 309.535L372.565 336.63Z" fill="white"/>
<path opacity="0.1" d="M382.855 258.38C382.442 258.247 381.998 258.173 381.525 258.16L207.22 253.321C204.921 253.256 202.821 254.85 202.509 257.195L199.079 282.572C199.071 282.638 199.066 282.7 199.06 282.765C197.292 282.267 196.155 280.592 196.421 278.585L199.851 253.208C200.164 250.863 202.264 249.267 204.562 249.334L378.867 254.173C381.34 254.246 383.113 255.967 382.855 258.38Z" fill="url(#paint25_linear_121_273)"/>
<path opacity="0.1" d="M376.141 308.963C375.723 308.797 375.271 308.697 374.792 308.677L200.673 301.652C198.374 301.559 196.253 303.58 195.94 305.933L192.484 331.802C192.464 331.968 192.451 332.129 192.451 332.294C190.683 331.723 189.56 329.822 189.826 327.815L193.283 301.945C193.595 299.593 195.714 297.572 198.015 297.665L372.135 304.69C374.46 304.79 376.147 306.73 376.141 308.963Z" fill="url(#paint26_linear_121_273)"/>
<path d="M326.284 378.424C326.797 374.531 324.045 370.945 320.133 370.719L230.051 365.547C226.32 365.333 222.875 368.475 222.368 372.265L218.65 400.285C218.143 404.081 220.731 407.713 224.46 407.968L314.496 414.129C318.406 414.397 322.007 411.095 322.523 407.196L326.284 378.424Z" fill="url(#paint27_linear_121_273)"/>
<path d="M333.089 189.646C331.902 198.603 327.301 206.687 320.758 212.634C313.708 219.047 304.421 222.949 294.763 222.762C285.154 222.577 277.065 218.379 271.871 211.823C267.081 205.78 264.734 197.728 265.91 188.922C268.355 170.6 285.188 155.79 303.66 155.834C322.308 155.875 335.555 171.012 333.089 189.646Z" fill="url(#paint28_linear_121_273)"/>
<path d="M315.126 179.465C314.06 187.49 306.653 193.92 298.611 193.824C290.601 193.727 284.993 187.191 286.052 179.224C287.114 171.259 294.446 164.834 302.459 164.87C310.507 164.907 316.191 171.44 315.126 179.465Z" fill="white"/>
<path d="M320.76 212.634C313.709 219.047 304.422 222.95 294.765 222.762C285.155 222.577 277.067 218.379 271.873 211.823C277.817 203.542 287.622 198.033 298.034 198.168C308.502 198.304 316.94 204.105 320.76 212.634Z" fill="white"/>
<path opacity="0.4" d="M416.51 139.543L376.681 443.126C376.028 448.098 371.101 451.794 366.052 451.406L247.209 442.281C241.564 436.501 236.915 429.564 233.597 421.24C231.968 417.158 230.775 412.754 229.982 408.122C227.776 395.303 228.631 380.732 231.848 366.429C234.323 355.418 238.202 344.548 243.168 334.74C247.14 326.899 251.81 319.729 257.027 313.703C260.783 309.367 264.845 305.153 269.13 301.021C274.297 296.034 279.787 291.167 285.452 286.344C298.651 275.098 312.784 264.102 325.87 252.492C356.063 225.707 380.558 195.779 374.664 153.076C374.475 151.731 372.635 141.43 370.285 130.754L408.182 130.649C413.258 130.636 417.156 134.619 416.51 139.543Z" fill="white"/>
<defs>
<linearGradient id="paint0_linear_121_273" x1="361.877" y1="390.084" x2="502.841" y2="9.3699" gradientUnits="userSpaceOnUse">
<stop offset="0.00359712" stop-color="#E38DDD"/>
<stop offset="1" stop-color="#9571F6"/>
</linearGradient>
<linearGradient id="paint1_linear_121_273" x1="257.521" y1="352.499" x2="530.948" y2="352.499" gradientUnits="userSpaceOnUse">
<stop stop-color="#FF9085"/>
<stop offset="1" stop-color="#FB6FBB"/>
</linearGradient>
<linearGradient id="paint2_linear_121_273" x1="327.688" y1="288.04" x2="408.396" y2="296.845" gradientUnits="userSpaceOnUse">
<stop stop-color="#444B8C"/>
<stop offset="0.9964" stop-color="#26264F"/>
</linearGradient>
<linearGradient id="paint3_linear_121_273" x1="256.576" y1="84.5992" x2="456.145" y2="764.014" gradientUnits="userSpaceOnUse">
<stop stop-color="#444B8C"/>
<stop offset="0.9964" stop-color="#26264F"/>
</linearGradient>
<linearGradient id="paint4_linear_121_273" x1="331.361" y1="67.8644" x2="565.908" y2="703.096" gradientUnits="userSpaceOnUse">
<stop stop-color="#FFC444"/>
<stop offset="0.9964" stop-color="#F36F56"/>
</linearGradient>
<linearGradient id="paint5_linear_121_273" x1="-1717.81" y1="1835.31" x2="-1557.38" y2="1684.03" gradientUnits="userSpaceOnUse">
<stop stop-color="#311944"/>
<stop offset="1" stop-color="#893976"/>
</linearGradient>
<linearGradient id="paint6_linear_121_273" x1="49.1639" y1="166.42" x2="177.723" y2="49.7566" gradientUnits="userSpaceOnUse">
<stop stop-color="#FF9085"/>
<stop offset="1" stop-color="#FB6FBB"/>
</linearGradient>
<linearGradient id="paint7_linear_121_273" x1="179.416" y1="267.863" x2="153.94" y2="293.793" gradientUnits="userSpaceOnUse">
<stop stop-color="#FFC444"/>
<stop offset="0.9964" stop-color="#F36F56"/>
</linearGradient>
<linearGradient id="paint8_linear_121_273" x1="116.27" y1="514.175" x2="116.485" y2="456.648" gradientUnits="userSpaceOnUse">
<stop stop-color="#AA80F9"/>
<stop offset="0.9964" stop-color="#6165D7"/>
</linearGradient>
<linearGradient id="paint9_linear_121_273" x1="110.571" y1="532.661" x2="107.831" y2="502.935" gradientUnits="userSpaceOnUse">
<stop stop-color="#FFC444"/>
<stop offset="0.9964" stop-color="#F36F56"/>
</linearGradient>
<linearGradient id="paint10_linear_121_273" x1="82.3547" y1="514.049" x2="82.5694" y2="456.522" gradientUnits="userSpaceOnUse">
<stop stop-color="#AA80F9"/>
<stop offset="0.9964" stop-color="#6165D7"/>
</linearGradient>
<linearGradient id="paint11_linear_121_273" x1="76.1991" y1="535.827" x2="73.4599" y2="506.101" gradientUnits="userSpaceOnUse">
<stop stop-color="#FFC444"/>
<stop offset="0.9964" stop-color="#F36F56"/>
</linearGradient>
<linearGradient id="paint12_linear_121_273" x1="109.53" y1="382.88" x2="88.444" y2="490.681" gradientUnits="userSpaceOnUse">
<stop stop-color="#311944"/>
<stop offset="1" stop-color="#893976"/>
</linearGradient>
<linearGradient id="paint13_linear_121_273" x1="120.055" y1="435.594" x2="88.3755" y2="438.133" gradientUnits="userSpaceOnUse">
<stop stop-color="#311944"/>
<stop offset="1" stop-color="#893976"/>
</linearGradient>
<linearGradient id="paint14_linear_121_273" x1="102.53" y1="441.552" x2="54.4384" y2="445.407" gradientUnits="userSpaceOnUse">
<stop stop-color="#311944"/>
<stop offset="1" stop-color="#893976"/>
</linearGradient>
<linearGradient id="paint15_linear_121_273" x1="140.518" y1="282.821" x2="104.938" y2="511.327" gradientUnits="userSpaceOnUse">
<stop stop-color="#AA80F9"/>
<stop offset="0.9964" stop-color="#6165D7"/>
</linearGradient>
<linearGradient id="paint16_linear_121_273" x1="64.843" y1="533.64" x2="47.6341" y2="764.258" gradientUnits="userSpaceOnUse">
<stop stop-color="#AA80F9"/>
<stop offset="0.9964" stop-color="#6165D7"/>
</linearGradient>
<linearGradient id="paint17_linear_121_273" x1="6.33683" y1="455.008" x2="101.316" y2="292.317" gradientUnits="userSpaceOnUse">
<stop stop-color="#AA80F9"/>
<stop offset="0.9964" stop-color="#6165D7"/>
</linearGradient>
<linearGradient id="paint18_linear_121_273" x1="40.004" y1="342.519" x2="60.0357" y2="369.579" gradientUnits="userSpaceOnUse">
<stop stop-color="#FFC444"/>
<stop offset="0.9964" stop-color="#F36F56"/>
</linearGradient>
<linearGradient id="paint19_linear_121_273" x1="22.7989" y1="530.503" x2="5.58997" y2="761.12" gradientUnits="userSpaceOnUse">
<stop stop-color="#AA80F9"/>
<stop offset="0.9964" stop-color="#6165D7"/>
</linearGradient>
<linearGradient id="paint20_linear_121_273" x1="96.8905" y1="275.089" x2="77.6063" y2="251.095" gradientUnits="userSpaceOnUse">
<stop stop-color="#FFC444"/>
<stop offset="0.9964" stop-color="#F36F56"/>
</linearGradient>
<linearGradient id="paint21_linear_121_273" x1="82.2262" y1="266.276" x2="92.4472" y2="232.652" gradientUnits="userSpaceOnUse">
<stop stop-color="#444B8C"/>
<stop offset="0.9964" stop-color="#3E4177"/>
</linearGradient>
<linearGradient id="paint22_linear_121_273" x1="108.291" y1="254.543" x2="79.542" y2="241.747" gradientUnits="userSpaceOnUse">
<stop stop-color="#FFC444"/>
<stop offset="0.9964" stop-color="#F36F56"/>
</linearGradient>
<linearGradient id="paint23_linear_121_273" x1="161.412" y1="294.239" x2="420.619" y2="294.239" gradientUnits="userSpaceOnUse">
<stop stop-color="#311944"/>
<stop offset="1" stop-color="#893976"/>
</linearGradient>
<linearGradient id="paint24_linear_121_273" x1="319.004" y1="804.054" x2="288.097" y2="268.692" gradientUnits="userSpaceOnUse">
<stop offset="0.003597" stop-color="#F36F56"/>
<stop offset="1" stop-color="#FFC444"/>
</linearGradient>
<linearGradient id="paint25_linear_121_273" x1="196.382" y1="266.05" x2="382.879" y2="266.05" gradientUnits="userSpaceOnUse">
<stop offset="0.003597" stop-color="#F36F56"/>
<stop offset="1" stop-color="#FFC444"/>
</linearGradient>
<linearGradient id="paint26_linear_121_273" x1="189.789" y1="314.979" x2="376.141" y2="314.979" gradientUnits="userSpaceOnUse">
<stop offset="0.003597" stop-color="#F36F56"/>
<stop offset="1" stop-color="#FFC444"/>
</linearGradient>
<linearGradient id="paint27_linear_121_273" x1="281.384" y1="333.045" x2="239.726" y2="597.219" gradientUnits="userSpaceOnUse">
<stop offset="0.003597" stop-color="#F36F56"/>
<stop offset="1" stop-color="#FFC444"/>
</linearGradient>
<linearGradient id="paint28_linear_121_273" x1="295.088" y1="57.9917" x2="303.985" y2="322.918" gradientUnits="userSpaceOnUse">
<stop offset="0.003597" stop-color="#F36F56"/>
<stop offset="1" stop-color="#FFC444"/>
</linearGradient>
</defs>
</svg>
