<?xml version="1.0" encoding="UTF-8"?>
<svg version="1.1" xmlns="http://www.w3.org/2000/svg" width="2000" height="2000">
<path d="M0 0 C5.00521498 4.27506734 8.52147591 9.82620658 9.28125 16.453125 C9.46775906 21.64429371 9.12488919 25.64747577 6 30 C3.890625 30.65234375 3.890625 30.65234375 2 31 C1.76925781 30.39671875 1.53851562 29.7934375 1.30078125 29.171875 C-1.43258768 22.44892792 -1.43258768 22.44892792 -7 18 C-11.33331775 17.36969924 -13.42784522 17.69772955 -17.3125 19.75 C-20.39200706 22.32819196 -21.7148092 24.17610536 -22.3359375 28.1484375 C-22.43203001 33.62571038 -21.88570671 36.83674281 -18 41 C-7.8309835 48.84290543 6.32526916 53.61958377 19 55 C20.27875 55.165 21.5575 55.33 22.875 55.5 C27.88235046 55.3778695 32.07922621 52.76437478 36.484375 50.59765625 C54.57029243 42.37861155 74.46510899 41.86558687 93.2265625 48.06640625 C110.50208564 54.82930484 122.53475351 65.80920768 130.25 82.6875 C133.25249755 89.98501409 134.76023575 97.23516075 136 105 C136.31638428 104.45698242 136.63276855 103.91396484 136.95874023 103.35449219 C159.26790501 65.2162709 188.07364007 37.59800453 231.60546875 26.04296875 C268.67518107 17.3834157 305.12591461 21.98422571 337.55639648 41.8503418 C340.94753673 43.96736485 344.23468076 46.12364871 347.3828125 48.58984375 C352.77419329 52.78001437 352.77419329 52.78001437 359.29296875 54.13671875 C363.39289384 53.41666022 366.75054744 52.64782874 369.34765625 49.22265625 C370.24585127 46.79888376 370.64835665 44.56300877 371 42 C371.19722656 40.85144531 371.39445312 39.70289063 371.59765625 38.51953125 C372.118796 35.35472893 372.56514216 32.17780727 373 29 C376.96 29 380.92 29 385 29 C385.33 33.29 385.66 37.58 386 42 C391.02643579 37.21880325 391.02643579 37.21880325 392.3125 30.75 C392.26032408 26.12125057 391.10512601 23.53639351 388 20 C384.59238269 17.414911 381.15841742 17.70297018 377 18 C374.47584304 18.93294357 373.27631418 19.58684451 371.76953125 21.83984375 C371.29580078 22.87818359 371.29580078 22.87818359 370.8125 23.9375 C370.48894531 24.62714844 370.16539062 25.31679688 369.83203125 26.02734375 C369.14553292 27.65495717 368.55860589 29.32418233 368 31 C366.68 31 365.36 31 364 31 C360.23016445 25.34524667 360.23105605 19.64087958 361 13 C362.7476656 6.75833715 366.65537657 2.5156232 372 -1 C378.85885899 -4.85084244 386.2904663 -5.02018509 393.8671875 -3.37890625 C401.68226446 -0.94345983 406.97912196 3.20523427 411.34375 10.1328125 C415.7428427 18.8995758 415.74069209 27.84631764 413.0703125 37.14453125 C408.92014276 48.21669942 400.64598767 55.10190223 390.19921875 60.0546875 C388 61 388 61 385 62 C382.59166828 81.4129645 382.59166828 81.4129645 387.9765625 99.2890625 C390.80056528 102.49207816 393.95270386 105.17207216 397.37646484 107.71362305 C399.64418584 109.5104083 401.24198673 111.71532452 403 114 C418.85078937 128.9642198 439.97869355 138.75823617 462.0234375 138.25 C479.6596501 136.7687433 494.99564699 130.65114395 507.3125 117.75 C516.24829672 107.14447535 520.64573092 93.84827952 519.82421875 80.046875 C518.69057804 71.29837498 515.74098365 61.61713758 508.75 55.75 C504.43682156 53.18126262 499.8528278 53.24328787 495 54 C491.9861065 55.25578896 490.57536873 56.0714739 488.8671875 58.828125 C487.36965858 62.57869292 488.01075488 66.15607611 489 70 C491.24589325 72.99452434 492.44869367 73.81623122 496 75 C497.64371491 75.09329934 499.29114677 75.12995144 500.9375 75.125 C502.21947266 75.12886719 502.21947266 75.12886719 503.52734375 75.1328125 C505.82680852 75.00930254 507.79640348 74.64420687 510 74 C510 75.32 510 76.64 510 78 C503.58523898 81.87306326 498.47572316 83.03677912 491 82 C484.61386913 80.34026547 481.55938211 76.67759988 478.12890625 71.21875 C475.52483736 66.1007184 475.17251697 60.47933809 476.49609375 54.9140625 C478.89815168 47.83002725 482.40079599 43.61947831 489 40.1875 C496.81774822 36.41299344 504.28895516 35.88419417 512.5 38.625 C526.46753065 44.13087308 533.15989367 54.79023569 539 68 C540.08111136 70.69285996 540.65060327 73.12116779 541 76 C541.14308594 77.13566406 541.28617188 78.27132812 541.43359375 79.44140625 C543.49514608 99.18188216 538.30112294 118.08284109 525.82495117 133.61889648 C513.29619711 148.53072251 495.27108649 158.15655294 476 161 C447.87383484 163.33269001 421.98055448 155.74071034 400.3125 137.5625 C388.01148294 127.01722441 388.01148294 127.01722441 384 121 C383.67 126.61 383.34 132.22 383 138 C379.37 138 375.74 138 372 138 C370.57168012 133.92219834 369.47312235 129.90555771 368.59765625 125.67578125 C368.34693359 124.48146484 368.09621094 123.28714844 367.83789062 122.05664062 C367.58201172 120.82107422 367.32613281 119.58550781 367.0625 118.3125 C366.07244881 113.53442685 365.05777355 108.76356031 364 104 C363.77642822 102.9682666 363.55285645 101.9365332 363.32250977 100.87353516 C361.86348506 94.78643245 360.22671721 91.20779904 355.8125 86.75 C355.07676758 85.99843628 355.07676758 85.99843628 354.32617188 85.23168945 C352.90686561 83.79823651 351.45420184 82.39803957 350 81 C348.95392578 79.97712891 348.95392578 79.97712891 347.88671875 78.93359375 C337.98145786 69.76661317 324.48158705 61.78409992 311.0625 59.5 C305.3942369 60.42543071 302.364667 64.13532343 299.0703125 68.63671875 C291.62993986 79.95164229 290.4604739 90.62919239 292.4296875 103.89453125 C294.30553618 110.50631888 298.50105746 115.95567402 304.43359375 119.421875 C309.53734719 121.69020986 313.48980519 122.68679433 319 121 C321.6412562 119.32720441 321.93928333 118.2276875 322.75 115.1875 C323.00692473 111.91170965 322.68626847 109.20258622 322 106 C324.31385672 105.1863361 325.50650116 104.79623274 327.81640625 105.75 C332.07814646 108.80091022 334.89079016 111.72134958 336 117 C336.85251231 124.12913416 336.37072903 130.13808106 332 136 C326.09730124 142.42868182 319.20614782 145.3899429 310.5390625 145.9921875 C302.26676365 146.01764073 295.50817026 143.02953125 289 138 C278.83039829 127.85014509 274.73407197 113.99442429 273.97265625 99.984375 C274.09361694 82.3586747 281.93727306 70.94747796 294 59 C282.80973192 58.52595783 272.65607295 62.73844633 263.953125 69.546875 C262 71 262 71 259 72 C257.94309829 73.868545 257.94309829 73.868545 257 76 C256.0849386 77.20487557 255.14584186 78.3917552 254.1875 79.5625 C250.55054388 84.36150796 248.15170941 89.39182122 246 95 C245.67773438 95.83402344 245.35546875 96.66804687 245.0234375 97.52734375 C237.16089309 122.54787058 245.59247178 147.83515419 257.04199219 169.9987793 C260.03130876 175.67776563 263.22762785 181.13963995 266.96875 186.36328125 C268 188 268 188 268 190 C267.01 190.33 266.02 190.66 265 191 C244.23519656 164.1147297 230.24911516 135.40011638 234.27246094 100.64648438 C237.25261667 82.22523848 247.06354368 66.26727053 261.875 55.0625 C278.9386014 44.01818476 299.32803581 42.46168204 319 45 C295.67351422 33.40359518 267.39561547 27.74476729 242 36 C215.27302543 45.14343867 198.19365289 65.54299782 185.54296875 89.79296875 C172.06312329 118.07924765 165.92998019 150.66727279 165.796875 181.83203125 C165.78986069 182.93438614 165.78284637 184.03674103 165.77561951 185.17250061 C165.75818503 188.71920896 165.75176556 192.26575035 165.75 195.8125 C165.74932526 197.02319153 165.74865051 198.23388306 165.74795532 199.48126221 C165.7816536 237.51244583 168.80439593 275.76076842 186.375 310.1875 C186.79668457 311.02434326 187.21836914 311.86118652 187.65283203 312.72338867 C193.71541432 324.07402489 193.71541432 324.07402489 203.97505379 330.9195137 C207.490074 331.26857923 210.88268576 331.30343196 214.41430664 331.22705078 C215.73235291 331.23826462 217.05039917 331.24947845 218.40838623 331.2610321 C221.99762463 331.29045209 225.58397055 331.25891804 229.17297292 331.21586847 C232.93266043 331.18132323 236.69201661 331.20361071 240.45176697 331.21969604 C247.5598903 331.24156035 254.66685827 331.21281242 261.7748217 331.165573 C269.87168684 331.11424848 277.96820642 331.11981189 286.06519139 331.12999368 C302.71055462 331.14965869 319.35490695 331.09840452 336 331 C336.62393345 326.37527486 337.12602423 321.89374173 337.14526367 317.22094727 C337.15164352 316.15526016 337.15802338 315.08957306 337.16459656 313.99159241 C337.16570938 312.86128098 337.1668222 311.73096954 337.16796875 310.56640625 C337.17129715 309.37506577 337.17462555 308.18372528 337.17805481 306.95628357 C337.18310338 304.43903995 337.18546378 301.92178969 337.18530273 299.40454102 C337.18747503 295.60616611 337.20561406 291.8080887 337.22460938 288.00976562 C338.57236701 262.26720223 338.57236701 262.26720223 329.5 239.23828125 C321.97020051 232.0396535 311.84596764 231.35880674 301.9375 230.3125 C300.78572266 230.18294922 299.63394531 230.05339844 298.44726562 229.91992188 C295.63235444 229.60455838 292.81677901 229.29813441 290 229 C290 225.7 290 222.4 290 219 C310.68895285 218.9218939 331.36419504 219.1276997 352.04992676 219.46356201 C355.89979481 219.52556285 359.74970383 219.58491194 363.59960938 219.64453125 C371.066447 219.7605294 378.53323681 219.87929524 386 220 C383.13171404 214.65259828 383.13171404 214.65259828 379.37109375 209.9375 C378.66351929 209.21264404 378.66351929 209.21264404 377.94165039 208.47314453 C377.19709595 207.74393799 377.19709595 207.74393799 376.4375 207 C375.6475061 206.22245361 375.6475061 206.22245361 374.84155273 205.42919922 C360.46147861 191.65412597 341.59494848 184.46109133 321.81176758 184.57592773 C306.02979163 185.07261597 293.03003774 191.12319859 281 201 C279.67164718 202.00660646 278.33979395 203.00867264 277 204 C276.34 203.01 275.68 202.02 275 201 C284.10558257 190.83562876 294.84914677 183.78012423 308 180 C309.10794922 179.66355469 309.10794922 179.66355469 310.23828125 179.3203125 C326.00021318 175.34580117 343.20533561 177.75586408 358 184 C357.95359375 183.18917969 357.9071875 182.37835937 357.859375 181.54296875 C357.47951544 169.88942015 360.01978929 160.67182897 368 152 C374.15066436 145.67526023 380.85338704 140.07958736 390 139.5 C395.39143943 139.82284068 400.55640534 141.83516493 404.609375 145.42578125 C408.1893737 149.50066212 409.82641707 153.09058778 410.3125 158.4375 C409.96864134 162.35748875 409.08344125 164.6819269 407 168 C404 170 404 170 402 169.9375 C399.21898165 168.63389765 398.55491016 166.59151693 397 164 C394.96756452 163.03122943 394.96756452 163.03122943 393 163 C392.67 163.33 392.34 163.66 392 164 C390.47998679 164.0800007 388.95883534 164.13872436 387.4375 164.1875 C381.55963911 164.7492927 378.07918927 166.78950636 374 171 C370.06890283 175.97065398 366 181.46322638 366 188 C368.12304564 189.61709329 368.12304564 189.61709329 370.875 191.125 C381.09176804 197.37294661 394.01672161 207.29911972 398 219 C400.64 219 403.28 219 406 219 C406 222.3 406 225.6 406 229 C405.34 229 404.68 229 404 229 C404.33 229.9075 404.66 230.815 405 231.75 C406 235 406 235 406 239 C406.66902344 238.95359375 407.33804688 238.9071875 408.02734375 238.859375 C424.79882838 238.22903732 440.43272309 244.64807739 455.93139648 250.32910156 C457.95462791 251.1028349 457.95462791 251.1028349 460 251 C461.19469742 249.38256349 462.30276784 247.70109405 463.375 246 C489.45072464 206.01407867 489.45072464 206.01407867 507 201 C508.36109031 201.25742956 509.71534888 201.55247763 511.0625 201.875 C516.6863507 202.80432456 520.30882381 199.5833297 524.70092773 196.55249023 C533.45842547 190.53075326 542.23595494 187.41520619 553 189 C555.66575127 190.03893348 556.8728119 190.98779504 559 193 C560.63062881 197.89188642 560.57970583 201.57708569 558.625 206.375 C554.86779009 212.34074906 548.80442142 216.94807893 543.17578125 221.06640625 C542.45777344 221.70449219 541.73976563 222.34257813 541 223 C541.061875 224.60875 541.061875 224.60875 541.125 226.25 C540.96681174 230.99564769 539.77680837 232.6330442 536.515625 235.96484375 C520.64029641 248.80808319 497.40940509 252.69765833 478 257 C499.4443333 271.2962222 542.09344057 272.14626061 566.734375 267.74609375 C590.90319997 262.22426891 614.70424507 252.04275071 628.75 230.5 C629.85149757 228.6775222 630.93647306 226.84489367 632 225 C632.4021875 224.3090625 632.804375 223.618125 633.21875 222.90625 C638.48649792 213.16889779 640.9453782 202.11365187 637.875 191.3125 C635.87368386 186.05322735 632.99766166 181.79983826 628.11328125 178.8671875 C622.12459957 176.2552281 617.33220369 177.05829026 611.125 178.8125 C608.58814997 180.23015149 608.00584347 181.31775075 607 184 C606.67 184.66 606.34 185.32 606 186 C605.59862125 190.17433895 605.73805697 192.49551713 607.6875 196.25 C610.08417962 199.1001055 611.56362295 200.59420939 615 202 C617.72145101 202.22805455 620.259512 202.13934685 623 202 C623.33 202.99 623.66 203.98 624 205 C619.48819716 208.00786856 615.28280015 207.8040577 610 207 C604.07511467 204.40057981 600.02224864 200.66671619 597 195 C594.83036867 188.49110601 595.50936751 182.32783093 598.54296875 176.20703125 C602.3845016 170.38808738 608.10813252 165.44421926 614.84765625 163.40234375 C623.41741961 161.80037347 631.30538368 162.84734992 639 167 C649.52504545 174.77742303 655.50745694 183.08409507 658 196 C660.12757228 215.35418905 654.25638558 234.4685716 642.5 249.9375 C641.34635425 251.30277651 640.17981371 252.65727215 639 254 C638.43152344 254.71027344 637.86304688 255.42054688 637.27734375 256.15234375 C619.24934355 277.93139283 590.64087465 290.04262783 563 293 C558.07866654 293.23401633 553.17581792 293.23639788 548.25 293.1875 C547.00089844 293.18685547 545.75179687 293.18621094 544.46484375 293.18554688 C527.20708122 293.10354061 527.20708122 293.10354061 523 291 C526.54737756 304.32310006 530.67723273 314.52889526 543 322 C550.63753592 325.99147606 558.382649 328.49016683 567.046875 326.5390625 C572.2165197 324.83588498 576.45400743 322.15804061 580 318 C581.88425712 314.61749042 581.88425712 314.61749042 582 311 C580.18362556 306.89341432 578.29172122 304.88656485 574.25 303.125 C573.1775 302.75375 572.105 302.3825 571 302 C571.125 300.1875 571.125 300.1875 572 298 C576.38493295 295.07671137 579.79599134 294.46165428 585 295 C590.98902422 296.20727366 594.72629587 298.95116439 598.51953125 303.69921875 C602.61663444 310.06648466 603.43837862 316.26374581 602.51953125 323.67578125 C602 326 602 326 600 331 C643.23 331 686.46 331 731 331 C731 336.94 731 342.88 731 349 C615.83 349 500.66 349 382 349 C382 353.29 382 357.58 382 362 C378.7 362 375.4 362 372 362 C371.34 357.71 370.68 353.42 370 349 C365.4129324 348.94437109 360.82986492 348.94309094 356.24267578 348.98779297 C354.6892987 348.99580172 353.13577743 348.99008072 351.58251953 348.96923828 C339.37649679 348.81932591 332.15739315 351.19152954 322 358 C292.29353567 373.92005267 251.61155628 371.88458448 220.08935547 362.65380859 C201.89805381 356.96132135 201.89805381 356.96132135 197.14595759 353.74523622 C188.1356728 347.92939395 177.20622363 349.30666418 166.91732788 349.36076355 C164.64005024 349.35444965 162.3627778 349.34594542 160.08551562 349.33544332 C153.83712414 349.31295261 147.58910231 349.32149746 141.34069943 349.3351289 C135.29175517 349.34344078 129.24289907 349.32827374 123.193978 349.31368351 C110.82427822 349.28465583 98.45466919 349.27877193 86.08494186 349.28615379 C73.8403083 349.2933851 61.59574886 349.29028352 49.35112381 349.27343178 C48.20841881 349.27186781 48.20841881 349.27186781 47.04262886 349.27027224 C43.17369353 349.26492336 39.30475849 349.25939036 35.43582352 349.25378648 C8.04396559 349.21444236 -19.3478621 349.19819044 -46.73974609 349.19555664 C-73.3478364 349.19294527 -99.95588787 349.17985048 -126.56396484 349.15258789 C-127.38438033 349.15175147 -128.20479582 349.15091504 -129.05007239 349.15005327 C-137.28914636 349.14164185 -145.52822009 349.13301758 -153.76729367 349.12423737 C-170.55070232 349.10635647 -187.33411227 349.08989614 -204.11752319 349.07429504 C-204.8891692 349.073576 -205.66081521 349.07285697 -206.45584443 349.07211614 C-257.9705506 349.02427626 -309.48527427 349.00993282 -361 349 C-361 343.06 -361 337.12 -361 331 C-317.77 331 -274.54 331 -230 331 C-230.99 328.03 -231.98 325.06 -233 322 C-233.65441475 316.00119812 -232.34510284 310.51568188 -230 305 C-226.3232577 300.42891498 -221.04131875 295.73228106 -215 295 C-209.79882378 294.61472769 -206.38605334 295.07596444 -202 298 C-201.3359375 300.109375 -201.3359375 300.109375 -201 302 C-201.54269531 302.24234375 -202.08539062 302.4846875 -202.64453125 302.734375 C-208.35239704 305.2231437 -208.35239704 305.2231437 -212 310 C-211.74861528 313.93836066 -210.84440719 317.50533374 -209 321 C-207.23470405 322.21690533 -207.23470405 322.21690533 -205 323 C-204.01 323.515625 -203.02 324.03125 -202 324.5625 C-194.55989955 328.12754813 -187.36228417 327.64915938 -179.6484375 325.09765625 C-168.79358025 320.59881423 -161.20957851 313.75109392 -156.6875 302.875 C-155.26412079 298.96528886 -154.05005771 295.02522122 -153 291 C-153.66 291.33 -154.32 291.66 -155 292 C-187.96703698 296.7983436 -223.339636 291.5509379 -250.77294922 271.71826172 C-254.72505364 268.70014854 -258.41140706 265.43945661 -262 262 C-262.74056641 261.29037109 -262.74056641 261.29037109 -263.49609375 260.56640625 C-275.84017639 248.48426701 -285.37596715 232.23512489 -288 215 C-288.20109375 213.75863281 -288.20109375 213.75863281 -288.40625 212.4921875 C-290.21836173 198.36595286 -286.96523333 185.43994782 -278.25 174.125 C-271.53406581 166.91550634 -262.51203798 163.13739821 -252.8125 162.5 C-245.27453643 162.65574305 -238.7347586 165.84604048 -233.015625 170.67578125 C-228.50637882 175.53103395 -226.39125925 180.92582015 -225.5625 187.4375 C-226.25399716 193.06826261 -227.77856727 197.85902158 -231.94140625 201.87109375 C-236.54894121 205.40947695 -240.11266492 207.14486902 -246 207.25 C-247.299375 207.28867187 -247.299375 207.28867187 -248.625 207.328125 C-251.42903194 206.94072585 -252.26286782 206.17141522 -254 204 C-253.34 203.34 -252.68 202.68 -252 202 C-250.9275 202.04125 -249.855 202.0825 -248.75 202.125 C-244.20170884 201.97339029 -242.45087086 200.90186868 -239 198 C-236.8366994 195.25981924 -236.07647552 193.51347849 -235.5625 190.0625 C-236.25516538 185.21384232 -238.4737107 182.22951083 -242.25 179.1875 C-246.61377866 177.30314103 -250.51640015 176.26683399 -255.1171875 177.625 C-261.17339131 180.36743192 -265.08721625 184.54357977 -267.8125 190.625 C-271.46720714 201.69414174 -268.37635534 212.97613124 -263.4921875 223.13671875 C-259.55278398 230.29177491 -254.76320866 236.23679134 -249 242 C-248.30132813 242.69867187 -247.60265625 243.39734375 -246.8828125 244.1171875 C-223.86684815 265.78423087 -193.45966156 269.81780888 -163.27832031 269.12744141 C-146.64477563 268.48082908 -121.87384457 266.24922972 -108 257 C-108.75917725 256.81937012 -109.51835449 256.63874023 -110.30053711 256.45263672 C-158.81094141 244.83245513 -158.81094141 244.83245513 -169 233 C-169.66 232.34 -170.32 231.68 -171 231 C-170.88585689 229.59889336 -170.7105178 228.20239594 -170.5 226.8125 C-170.32797105 224.36085502 -170.32797105 224.36085502 -171 222 C-173.26103667 219.81955474 -175.65023204 218.32081987 -178.3203125 216.671875 C-184.49507469 212.81939947 -188.79129244 208.32439895 -190.7578125 201.2109375 C-191.18997845 197.26568062 -190.13779813 195.34030957 -188 192 C-182.56284743 188.0270549 -177.50214457 188.17259625 -171 189 C-163.85251926 191.10909268 -157.50053027 194.6620965 -151.25390625 198.66796875 C-147.49707861 200.88820831 -145.16993354 202.25233861 -140.8125 201.3125 C-133.97778211 200.75227722 -129.3260394 204.17461881 -124.078125 208.29296875 C-113.08648191 217.69494098 -104.98171078 229.42664054 -96.8125 241.25 C-96.23508057 242.08466797 -95.65766113 242.91933594 -95.06274414 243.77929688 C-94.53285889 244.55853516 -94.00297363 245.33777344 -93.45703125 246.140625 C-92.98241455 246.83704102 -92.50779785 247.53345703 -92.01879883 248.25097656 C-91 250 -91 250 -91 252 C-89.83726562 251.55269531 -88.67453125 251.10539063 -87.4765625 250.64453125 C-70.79357837 244.30710682 -54.83001194 239.51216557 -37 238 C-36.72027344 237.11699219 -36.44054687 236.23398437 -36.15234375 235.32421875 C-29.38957614 215.07940639 -15.85859161 198.30146453 3 188 C3.66 188 4.32 188 5 188 C1.72496441 178.94460205 -1.89885817 172.27392964 -9.3125 166.0625 C-12.78873592 164.68817417 -16.07875139 164.44481625 -19.79296875 164.2109375 C-22 164 -22 164 -24 163 C-27.87630016 164.25041941 -29.15426347 166.49310059 -31 170 C-34.63535761 169.79803569 -35.7994786 169.21677989 -38.3125 166.5 C-40.94386256 161.04235913 -40.84025508 156.52076525 -38.9375 150.8125 C-35.17993136 145.35796488 -30.61458072 141.34991443 -24 140 C-15.67811149 139.02911301 -9.87036861 142.036661 -3.31640625 147.0546875 C4.32253505 153.61532356 10.08138631 160.91966457 12 171 C12.22570127 175.34720265 12.18144784 179.65197204 12 184 C12.68964844 183.73445312 13.37929688 183.46890625 14.08984375 183.1953125 C15.02957031 182.84210938 15.96929688 182.48890625 16.9375 182.125 C17.85402344 181.77695312 18.77054688 181.42890625 19.71484375 181.0703125 C37.52777886 175.26681164 57.01852801 176.50616529 73.89111328 184.63671875 C81.68206528 188.64405975 87.86151964 193.77218624 94 200 C93.67 201.32 93.34 202.64 93 204 C92.52691406 203.63648438 92.05382812 203.27296875 91.56640625 202.8984375 C89.39199816 201.24537872 87.20052037 199.61813809 85 198 C84.30261719 197.48566406 83.60523438 196.97132813 82.88671875 196.44140625 C68.42976025 186.26603327 52.21867318 182.96464452 34.84228516 185.28857422 C15.56129505 188.67239934 -2.10345549 199.52457272 -14.03125 215.03515625 C-18.97679731 222.48291499 -22.72575516 230.34248823 -25 239 C-24.34515625 239.02578125 -23.6903125 239.0515625 -23.015625 239.078125 C-9.00724771 239.94870212 5.401107 245.34756996 15 256 C21.25599912 265.04430641 22.8675839 271.97801861 22 283 C20.40179967 288.89964235 17.0963953 292.63445593 12 296 C5.39928058 299.31325174 -0.84898646 299.72278792 -8 298 C-20.09620114 293.47338656 -27.2467515 286.40672969 -33 275 C-35.77699107 268.65006501 -37.26110485 262.86221438 -38 256 C-54.86419554 259.3531149 -70.06259296 264.76305955 -85.9375 271.3125 C-131.32142857 290 -131.32142857 290 -147 290 C-146.67 290.66 -146.34 291.32 -146 292 C-144.27046318 305.21252715 -149.06899405 318.65430457 -157 329 C-157.33 329.33 -157.66 329.66 -158 330 C-136.22 330.495 -136.22 330.495 -114 331 C-113.01 325.06 -113.01 325.06 -112 319 C-108.11398471 306.08752112 -101.6423186 291.83966052 -89.48046875 284.84765625 C-83.01479109 281.43077281 -77.0870371 278.81208412 -69.6875 278.9375 C-68.470625 278.958125 -67.25375 278.97875 -66 279 C-69.51175635 283.18755825 -73.133804 287.133804 -77 291 C-78.24090689 292.34341659 -79.46937056 293.69839637 -80.6875 295.0625 C-81.26886719 295.71347656 -81.85023438 296.36445312 -82.44921875 297.03515625 C-83.95910079 298.9481806 -84.99879692 300.78551635 -86 303 C-84.84960919 301.84960919 -83.69955293 300.69888266 -82.55078125 299.546875 C-81.49083338 298.48959702 -80.42545767 297.43774005 -79.35546875 296.390625 C-75.55581617 292.65101208 -72.00965541 288.78017431 -68.578125 284.69921875 C-67 283 -67 283 -64 281 C-64.85806033 297.30314625 -71.66856562 311.50381837 -83.625 322.5625 C-87.27121024 325.69879962 -90.64831464 327.51332265 -95 330 C-10.19 330 74.62 330 162 330 C158.37 326.04 154.74 322.08 151 318 C145.27119817 310.42632979 140.47740573 302.36592952 136 294 C135.60014893 293.25355225 135.20029785 292.50710449 134.78833008 291.73803711 C131.56263469 285.52044602 129.11896476 279.21276427 126.9375 272.5625 C126.59315918 271.51698975 126.24881836 270.47147949 125.89404297 269.39428711 C123.84140156 263.00834563 122.02043846 256.62432535 120.625 250.0625 C120.4818335 249.39226807 120.33866699 248.72203613 120.19116211 248.03149414 C119.73466114 245.69410939 119.35869081 243.35452151 119 241 C118.73292236 239.30121704 118.73292236 239.30121704 118.46044922 237.56811523 C116.56400894 224.39032384 116.7744067 211.22245821 116.875 197.9375 C116.88505673 195.60612367 116.89417778 193.2747431 116.90234375 190.94335938 C116.92412797 185.29547881 116.95738925 179.64775989 117 174 C116.45730469 174.75128174 115.91460938 175.50256348 115.35546875 176.27661133 C114.64003906 177.2642749 113.92460938 178.25193848 113.1875 179.26953125 C112.47980469 180.24768799 111.77210938 181.22584473 111.04296875 182.23364258 C108.80289028 185.26690371 106.46557921 188.14917404 104 191 C103.34 190.67 102.68 190.34 102 190 C104.05483403 184.06381279 107.53812708 178.83953054 110.74804688 173.4765625 C116.63719971 163.48675469 120.64021372 153.80907389 123.25 142.5 C123.75448402 140.38524375 124.2596597 138.27065234 124.765625 136.15625 C125.08708496 134.77663086 125.08708496 134.77663086 125.41503906 133.36914062 C126 131 126 131 127 128 C128.16976192 108.91945721 125.52867944 90.65857593 112.6875 75.625 C104.71339014 67.31863556 92.73064846 59.44391644 80.859375 58.90234375 C80.16328125 58.91394531 79.4671875 58.92554688 78.75 58.9375 C77.5125 58.958125 76.275 58.97875 75 59 C75.50789063 59.4125 76.01578125 59.825 76.5390625 60.25 C86.09579492 68.26763319 92.32441196 77.62288525 95 90 C96.3405729 105.78177894 94.47728667 119.88893502 85 133 C82.4375 135.875 82.4375 135.875 80 138 C79.21625 138.70125 78.4325 139.4025 77.625 140.125 C70.92745582 144.90896013 64.19118852 146.31740855 56 146 C48.25911067 144.44564589 42.23860941 140.88217322 37 135 C33.59412203 129.83624953 32.44732118 124.514608 33.40234375 118.44140625 C34.91726052 112.40863118 36.72906602 109.33467252 42 106 C44.375 105.1875 44.375 105.1875 46 105 C47.9451885 107.86057132 48.01201497 108.92657519 47.4375 112.4375 C46.75310933 115.93150402 46.75310933 115.93150402 47.9375 118.875 C50.35516704 121.36592968 52.22806709 121.98140187 55.68359375 122.19140625 C61.703004 121.69401822 67.19050765 119.32276345 71.375 114.9375 C78.22452784 105.71398808 79.28347731 95.10153024 78 84 C76.44802628 78.47914487 74.42537443 73.77659079 70.828125 69.29296875 C69 67 69 67 69 65 C68.401875 64.731875 67.80375 64.46375 67.1875 64.1875 C65 63 65 63 63.59765625 61.4296875 C61.89146428 59.58911663 61.89146428 59.58911663 58.25 59.9375 C33.98797428 63.71246672 16.00993604 82.68193199 1.84375 101.29296875 C-3.5466387 108.37359652 -9.26219146 115.19988492 -15 122 C-15.72703125 122.86334961 -15.72703125 122.86334961 -16.46875 123.74414062 C-33.34386621 143.5676081 -56.75055698 158.17271047 -83 161 C-108.29635335 162.44182649 -129.18492753 157.33991642 -149 141 C-149.63035156 140.48308594 -150.26070312 139.96617187 -150.91015625 139.43359375 C-163.94705542 127.58456694 -171.04589545 109.25652369 -172.203125 91.96484375 C-172.46976904 74.74408303 -168.15364923 59.48519696 -156.0859375 47.0234375 C-149.15770546 40.53684575 -140.87459134 36.62430853 -131.27734375 36.78515625 C-124.01026562 37.47072966 -117.34324074 39.97022938 -112 45 C-107.51024711 50.58185495 -105.67414653 55.92902571 -106.1875 63.0625 C-107.23068501 70.73570529 -110.30175951 74.63957776 -116.0625 79.58203125 C-120.92810499 83.1429478 -127.2536173 82.68116012 -133 82 C-135.99915077 80.69443361 -138.47978324 79.07547262 -141 77 C-140.67 76.01 -140.34 75.02 -140 74 C-139.44054687 74.15855469 -138.88109375 74.31710937 -138.3046875 74.48046875 C-132.81927835 75.71701013 -127.71240287 75.70330832 -122.5 73.5625 C-119.08397077 70.06107004 -118.10957087 66.86326097 -118 62 C-119.09234273 58.66228609 -119.80401312 56.74171718 -122.8203125 54.87109375 C-126.86500708 53.25466563 -130.73606941 53.29468817 -135 54 C-141.18387303 56.72219021 -144.35613231 61.39632622 -147.03515625 67.421875 C-151.69976765 79.88601882 -150.80210882 92.66533539 -145.78125 104.9921875 C-138.51197117 119.24805097 -126.11816781 129.82150588 -111 135 C-89.20360223 140.532419 -69.69140764 137.63706741 -50 127 C-36.43044937 118.8027504 -24.93380147 106.05211933 -15.19140625 93.703125 C-7.19144366 83.83507845 1.9562243 74.89946013 11 66 C9.88625 65.91363281 8.7725 65.82726562 7.625 65.73828125 C-10.26593914 64.16727325 -26.18679895 60.6487365 -38.2734375 46.37109375 C-44.02904138 38.46690472 -45.98454355 29.65399649 -45 20 C-42.7147014 10.8339654 -39.04293418 4.7340552 -30.9375 -0.3125 C-21.36381712 -5.93279765 -9.55812758 -5.79280459 0 0 Z M-137 225 C-137.86850174 227.24875747 -137.86850174 227.24875747 -138 230 C-135.16320301 234.31193142 -131.51455522 237.03418694 -127.25 239.8125 C-126.60039307 240.24046875 -125.95078613 240.6684375 -125.28149414 241.109375 C-116.65804107 246.66531465 -106.96553178 252.36921399 -97 255 C-96.01 254.67 -95.02 254.34 -94 254 C-95.35079339 250.91378336 -96.77433509 249.05478007 -99.3515625 246.8984375 C-100.03033447 246.33020264 -100.70910645 245.76196777 -101.40844727 245.17651367 C-102.50564087 244.2847644 -102.50564087 244.2847644 -103.625 243.375 C-104.379021 242.76052002 -105.13304199 242.14604004 -105.90991211 241.51293945 C-110.95927788 237.47123797 -116.11912884 233.68131807 -121.5625 230.1875 C-122.19172363 229.7735498 -122.82094727 229.35959961 -123.46923828 228.93310547 C-127.99304316 226.14085477 -131.69837207 225.3573473 -137 225 Z M478 240 C477.12118164 240.70842041 477.12118164 240.70842041 476.22460938 241.43115234 C474.41111766 242.90135529 472.60939506 244.38457138 470.8125 245.875 C470.24732666 246.3393042 469.68215332 246.8036084 469.09985352 247.28198242 C466.4938466 249.48378249 465.10012771 250.69961688 464 254 C468.23887325 255.24563797 470.25757198 254.79591251 474.1328125 252.75390625 C475.09912598 252.25004395 476.06543945 251.74618164 477.06103516 251.22705078 C478.07214355 250.67774902 479.08325195 250.12844727 480.125 249.5625 C481.15802246 249.01062012 482.19104492 248.45874023 483.25537109 247.89013672 C497.22868114 240.38553499 497.22868114 240.38553499 508 229 C508 228.01 508 227.02 508 226 C496.69888351 223.23305997 486.28966477 233.30370044 478 240 Z M391 232 C387.21965377 235.47736026 387.21965377 235.47736026 385 240 C388.3 239.67 391.6 239.34 395 239 C394.67 237.02 394.34 235.04 394 233 C393.01 232.67 392.02 232.34 391 232 Z M-26 255 C-25.50222546 263.95994178 -21.88543029 271.82599721 -15.80078125 278.4609375 C-11.4035249 282.21911321 -6.35467377 284.69476451 -0.625 285.4375 C2.94431195 284.84261468 5.05599242 284.21372403 7.3125 281.3125 C8.37899987 277.72518226 8.02511763 275.61806223 7 272 C2.17255436 264.39088599 -5.24039266 259.75353954 -13.5625 256.6875 C-17.69406507 255.86118699 -21.80449318 255.36151759 -26 255 Z M395 255 C393.01926635 255.280828 391.04041552 255.57496614 389.0625 255.875 C387.96035156 256.03742188 386.85820313 256.19984375 385.72265625 256.3671875 C384.37494141 256.68042969 384.37494141 256.68042969 383 257 C381.7736243 259.45275141 381.88584686 261.0505781 381.90234375 263.7890625 C381.90556641 264.73007812 381.90878906 265.67109375 381.91210938 266.640625 C381.92048828 267.62546875 381.92886719 268.6103125 381.9375 269.625 C381.94201172 270.61757813 381.94652344 271.61015625 381.95117188 272.6328125 C381.96297855 275.0886016 381.979446 277.54427104 382 280 C389.75931338 276.37427361 392.646778 268.05475234 395.43359375 260.3828125 C396.25096983 257.87449456 396.25096983 257.87449456 395 255 Z M408 256 C407.7525 256.9075 407.505 257.815 407.25 258.75 C406.83565452 260.1673473 406.41860886 261.58390601 406 263 C405.61521484 264.36125 405.61521484 264.36125 405.22265625 265.75 C401.08262751 279.39610332 394.19483383 288.6830997 382 296 C382 307.55 382 319.1 382 331 C410.05 331 438.1 331 467 331 C464.24479769 328.93359827 461.58118781 327.07975641 458.6875 325.25 C446.77022576 317.27910182 439.88219031 305.73460158 436 292 C435.54906176 288.67379073 435.24237914 285.34741856 435 282 C437.23190252 284.37244143 439.46000925 286.74841646 441.6875 289.125 C442.31333984 289.79015625 442.93917969 290.4553125 443.58398438 291.140625 C447.19236139 294.99459836 450.66534417 298.90659839 454 303 C455.32669952 300.18810064 455.32669952 300.18810064 454.20703125 298.37890625 C449.06260796 291.67818684 443.04900513 285.87282052 437 280 C448.08789138 279.75631008 457.51407979 283.39020208 465.9375 290.67578125 C476.22840855 301.40313458 480.62131438 316.7278863 483 331 C498.18 331 513.36 331 529 331 C526.69 327.37 524.38 323.74 522 320 C517.06648118 310.53297739 516.75116528 300.48883226 516 290 C515.35901367 289.84031738 514.71802734 289.68063477 514.05761719 289.51611328 C490.04869075 283.46504852 467.20049931 275.22475846 444.33618164 265.77685547 C432.50729491 260.91817076 420.95937061 256.30201923 408 256 Z M229 349 C243.87708261 360.15781196 270.38233309 360.28793348 288.16186523 358.23608398 C296.3627033 357.04128918 309.01104399 354.98895601 315 349 C286.62 349 258.24 349 229 349 Z " fill="#F5BD64" transform="translate(815,569)"/>
<path d="M0 0 C360.36 0 720.72 0 1092 0 C1092 5.94 1092 11.88 1092 18 C1083.42 18.33 1074.84 18.66 1066 19 C1069.465 23.95 1069.465 23.95 1073 29 C1074.5234375 32.20703125 1074.5234375 32.20703125 1075.375 34.8125 C1075.67148438 35.68519531 1075.96796875 36.55789063 1076.2734375 37.45703125 C1080.15012133 51.02542464 1077.31136375 63.73825736 1070.79296875 76.05078125 C1062.52102268 89.65714135 1050.62988434 99.18046476 1037 107 C1036.34 107 1035.68 107 1035 107 C1042.27406992 117.18851515 1050.78168095 124.67851564 1061.52954102 130.99414062 C1063.06745658 131.92111512 1064.54107134 132.95310307 1066 134 C1066 134.99 1066 135.98 1066 137 C1050.93447852 134.29319236 1038.0866928 126.72994133 1027.47265625 115.84375 C1025.21383758 113.76725317 1025.21383758 113.76725317 1022.75390625 114.0390625 C1021.84511719 114.35617187 1020.93632813 114.67328125 1020 115 C1018.60241448 115.43762603 1017.20386969 115.87219354 1015.8046875 116.3046875 C1015.01682861 116.55718262 1014.22896973 116.80967773 1013.41723633 117.06982422 C983.59541933 126.51497475 953.36504257 126.56496995 923.5390625 117.0859375 C919.33017368 115.71987277 919.33017368 115.71987277 915 115 C913.3661439 116.05526663 913.3661439 116.05526663 912.0625 117.8125 C908.84191394 121.30436653 905.34384008 124.16668485 901.5 126.9375 C900.4378125 127.70964844 899.375625 128.48179687 898.28125 129.27734375 C892.17913157 133.37397252 885.5097084 136.60873686 879 140 C879.81755516 140.02759148 879.81755516 140.02759148 880.65162659 140.05574036 C984.68726721 143.6015135 984.68726721 143.6015135 1031 167 C1031.78342773 167.39445312 1032.56685547 167.78890625 1033.37402344 168.1953125 C1044.18888212 173.72538457 1053.80898545 180.06724675 1063 188 C1063.55526367 188.47163574 1064.11052734 188.94327148 1064.68261719 189.42919922 C1089.09854646 210.32781926 1105.07957865 239.26384286 1108.73828125 271.21875 C1110.63311585 298.59486784 1101.31791546 324.79502027 1083.41015625 345.42919922 C1075.68478318 354.03464422 1067.16071455 359.76789968 1057 365 C1056.22011719 365.42152344 1055.44023438 365.84304688 1054.63671875 366.27734375 C1039.74566007 373.70885138 1021.6426866 373.84751387 1006 369 C992.95275718 363.76448218 983.34568163 356.7537798 977 344 C972.56986926 333.61157496 973.2020918 323.4858581 977 313 C981.68962055 302.73440451 988.52864559 294.88484333 998.93359375 290.11328125 C1009.11721817 287.02534352 1020.62149321 288.19927466 1030 293 C1037.34585673 297.43306484 1043.98170182 303.83284023 1047 312 C1046.6875 314.875 1046.6875 314.875 1046 317 C1045.34 317 1044.68 317 1044 317 C1042.95703125 315.4609375 1042.95703125 315.4609375 1041.8125 313.375 C1037.1531816 305.7087959 1030.74551756 301.14695785 1022 299 C1012.62017051 298.00736644 1005.94172888 298.85511689 998.375 304.5625 C993.3484921 309.12484839 990.22146031 315.3884872 989.0625 322.0625 C988.94424687 329.51244732 990.47791379 335.70418328 994.82421875 341.8515625 C1002.95290506 349.87809296 1014.03771624 352.29264106 1025.05957031 352.31689453 C1031.62111046 352.18857856 1037.03663243 350.62750588 1043 348 C1044.36898438 347.39865234 1044.36898438 347.39865234 1045.765625 346.78515625 C1062.9507746 338.31533252 1072.96285049 323.22825463 1080 306 C1087.31337942 284.40684691 1084.60269046 261.39816795 1075 241 C1070.34783389 231.93270672 1064.67674616 223.69698397 1058 216 C1057.30261719 215.16984375 1056.60523438 214.3396875 1055.88671875 213.484375 C1030.51522571 184.10211308 988.8887562 168.14118542 951 164 C951.51949219 164.60585937 952.03898437 165.21171875 952.57421875 165.8359375 C962.35050868 177.58194204 967.85884848 190.42811046 967.3515625 206.015625 C965.44060632 222.23751965 959.5486881 235.23445313 946.8046875 245.82421875 C941.34629584 249.70769812 933.86279046 254 927 254 C926.77054688 254.57878906 926.54109375 255.15757812 926.3046875 255.75390625 C921.65645094 263.75610992 910.44026622 268.27996953 902 271 C893.60672594 272.67865481 886.24226448 272.18234899 878 270 C877.67 268.68 877.34 267.36 877 266 C877.88300781 265.85304688 878.76601562 265.70609375 879.67578125 265.5546875 C888.58024584 263.89048037 897.40359546 261.59640454 904 255 C903.18917969 254.731875 902.37835937 254.46375 901.54296875 254.1875 C887.67520331 249.27969943 877.60317418 242.05491122 870.84375 228.71875 C867.84421484 221.05327126 867.80830784 212.47835819 870.5625 204.75 C874.70757715 195.68900678 881.59686738 189.52731734 890.80078125 185.89453125 C900.08241665 183.29929986 909.63789799 184.25885436 918.27734375 188.38671875 C927.66728472 193.95062925 934.18553292 201.78501224 937.44140625 212.21484375 C938.67887474 218.38487893 938.77671774 224.72499843 939 231 C946.67734122 225.67286527 951.24910768 217.4803141 953.6796875 208.484375 C955.51020325 194.28671623 952.89398021 182.28543267 944.3671875 170.80078125 C939.15440379 164.47765123 934.33890386 161.0060086 926.08502197 160.17626953 C923.73805637 160.01548575 921.38946417 159.87739762 919.04003906 159.7578125 C917.76451298 159.68233185 916.48898689 159.6068512 915.1748085 159.52908325 C901.28599778 158.75267549 887.38771152 158.77382757 873.48203182 158.86307526 C869.82343352 158.88362867 866.16480844 158.8901672 862.50616455 158.89794922 C852.47589195 158.92163923 842.44573206 158.96569424 832.41553497 159.01040649 C823.20469944 159.05126894 813.993904 159.08727763 804.78299546 159.10683632 C801.18011366 159.11497247 797.57735941 159.12711887 793.97454071 159.15032959 C718.4000655 159.63209208 638.73416635 151.0911296 580 99 C579.32324219 98.40832031 578.64648438 97.81664062 577.94921875 97.20703125 C564.34385885 84.53997203 554.65097233 65.44723813 553.6875 46.97265625 C553.35241491 36.42839228 554.17889773 27.91098402 558 18 C550.08 18 542.16 18 534 18 C534.99 20.64 535.98 23.28 537 26 C541.52691955 44.52341572 537.62819313 63.20753513 528.19921875 79.49609375 C524.9774339 84.77580265 521.17085895 89.4429504 517 94 C516.27554688 94.80566406 515.55109375 95.61132812 514.8046875 96.44140625 C502.27412616 109.67282949 486.98862028 119.49020599 471 128 C470.00492432 128.53850586 470.00492432 128.53850586 468.98974609 129.08789062 C436.64288598 146.33735057 398.69344204 153.05845495 362.625 156.75 C361.51237793 156.86545166 360.39975586 156.98090332 359.25341797 157.09985352 C338.65958955 159.04927649 317.98414105 159.13469566 297.31685638 159.04459953 C292.9890168 159.02580849 288.66118434 159.01658001 284.33331299 159.00868225 C272.04622759 158.98489683 259.75919377 158.94892642 247.47216797 158.90405273 C240.64073134 158.87918687 233.8093143 158.86202178 226.97783875 158.85249335 C223.39461745 158.84713072 219.81150187 158.83811395 216.22832489 158.81910515 C201.93122861 158.74508708 187.68367944 158.89770139 173.41113281 159.82250977 C171.66460482 159.92670809 171.66460482 159.92670809 169.88279343 160.03301144 C160.26858825 160.74354418 154.86951474 163.39850998 148.18359375 170.34375 C140.89290753 179.2125633 137.41131742 190.16349879 137.75390625 201.58984375 C138.81402098 211.97223721 142.18883806 222.21611155 150.375 229.125 C151.24125 229.74375 152.1075 230.3625 153 231 C153.02578125 230.04480469 153.0515625 229.08960938 153.078125 228.10546875 C153.64871295 215.09865708 156.39391237 203.50209815 166 194.02734375 C174.571543 186.81806383 183.5044022 184.2439333 194.63671875 184.62109375 C203.44732187 185.61369364 210.06428407 189.49232001 216 196 C222.83538321 204.81600623 224.00371597 211.8307421 223 223 C219.90414948 235.10853686 212.40839122 243.16266355 201.8984375 249.4921875 C197.42693578 251.8183326 192.80572706 253.50343896 188 255 C196.19713825 261.07195426 204.75997016 265.08977513 215 266 C214.67 267.32 214.34 268.64 214 270 C202.19425193 273.43439944 190.21069004 272.58938068 179.1875 266.6875 C174.14972935 263.6129782 169.10577726 260.28233528 165.08984375 255.9296875 C162.71655367 253.73827572 160.95207789 253.09806386 157.875 252.1875 C145.57216877 247.96096144 136.59184554 239.38116028 130.625 227.9375 C124.26160528 214.24499213 123.35461761 199.23764495 128.0390625 184.796875 C130.52160585 178.42234433 133.64167113 173.23952105 138 168 C139.005979 166.67117193 140.0075328 165.33894983 141 164 C101.59004973 169.9585336 60.01250841 184.17732066 34 216 C33.2265625 216.92425781 32.453125 217.84851562 31.65625 218.80078125 C16.46616786 237.39211447 5.96710152 261.57345421 8 286 C10.7762026 307.01672126 18.859982 326.20178309 35.4765625 340.06640625 C47.82458028 349.14121932 60.69874664 353.20398308 76 352 C85.27517121 350.29410397 93.54238204 346.82346191 99.40234375 339.16796875 C101.39554515 335.91217002 102.62140046 332.78599541 103 329 C103.103125 327.96875 103.20625 326.9375 103.3125 325.875 C102.57207805 316.69376782 98.93622263 309.07813324 92 303 C85.53776512 297.87377773 77.90544302 298.13645499 70 299 C62.06897156 300.8411316 55.26267101 305.26267543 50.6171875 312.0078125 C49.67580201 313.63384198 48.8264568 315.3126507 48 317 C47.01 316.67 46.02 316.34 45 316 C45.9773893 307.58223465 50.84820574 301.47901858 57.25 296.125 C67.44667813 288.86372921 78.35836613 287.40256954 90.640625 289.4375 C100.28892572 292.13632538 107.8079097 299.69265552 113 308 C118.06611137 318.47099006 120.22280469 329.43010985 116.375 340.75 C110.97741518 353.70796496 102.3705326 362.22891681 89.45703125 367.74609375 C72.56238099 373.87398385 54.2278287 374.00258204 37.80737305 366.33325195 C30.33049462 362.62364845 23.50931885 358.24303657 17 353 C15.53046875 351.84371094 15.53046875 351.84371094 14.03125 350.6640625 C-3.15268318 336.22725794 -13.1051438 312.81201495 -16 291 C-17.11066152 276.64674064 -16.24344265 262.76761395 -12 249 C-11.79101074 248.3203418 -11.58202148 247.64068359 -11.36669922 246.94042969 C-6.05070522 230.28763051 2.86027102 216.33286312 14 203 C14.86625 201.92105469 14.86625 201.92105469 15.75 200.8203125 C19.40063012 196.35622676 23.58680924 192.69440488 28 189 C28.76699219 188.32195312 29.53398437 187.64390625 30.32421875 186.9453125 C50.01549679 169.99814825 75.01738832 158.5872519 100 152 C100.82048828 151.78150391 101.64097656 151.56300781 102.48632812 151.33789062 C129.88912459 144.21023724 157.83194677 142.17973287 186 141 C186.6939386 140.97077454 187.3878772 140.94154907 188.10284424 140.91143799 C196.40045824 140.56500316 204.69919027 140.25923565 213 140 C212.05640625 139.52691406 211.1128125 139.05382813 210.140625 138.56640625 C198.45934523 132.59577045 188.34479973 125.69939395 179.03515625 116.3359375 C177.07204951 114.72653656 177.07204951 114.72653656 174.6574707 115.33276367 C172.22856395 115.94261229 169.83847828 116.60307422 167.4453125 117.33984375 C136.92435222 126.55143595 102.07994369 128.06570557 72.2734375 114.78515625 C69.63034338 113.87233508 68.54676007 113.88878318 66 115 C64.47403862 116.35104965 64.47403862 116.35104965 63.0625 118.0625 C53.83362048 127.68662062 39.98165774 134.30569368 27 137 C27 135.68 27 134.36 27 133 C29.421875 131.24609375 29.421875 131.24609375 32.75 129.4375 C42.43916739 123.88228814 51.05513781 116.5542428 57 107 C55.95585937 106.63261719 55.95585937 106.63261719 54.890625 106.2578125 C37.90122822 98.86512903 24.15452055 83.83929836 17 67 C12.85740214 55.60785588 13.13469805 43.29187732 17.875 32.125 C20.30372329 27.14115147 23.06752374 22.93247626 27 19 C18.09 18.67 9.18 18.34 0 18 C0 12.06 0 6.12 0 0 Z M76 18 C76.78624756 18.77690186 77.57249512 19.55380371 78.38256836 20.35424805 C87.93218338 30.00718881 91.92434103 42.48628657 92.5 55.875 C92.0023861 68.06654064 88.74537143 79.74424739 83.07421875 90.49609375 C81.64860444 93.05355531 81.64860444 93.05355531 83 96 C95.01631219 101.33335643 108.90919859 104.34645016 122 105 C122.98613281 105.05285156 123.97226562 105.10570312 124.98828125 105.16015625 C137.98812683 105.51150343 151.57222444 103.88896378 164 100 C163.22986205 95.19745434 161.3759178 91.35075729 159.25390625 87.01171875 C154.27961321 75.06411772 153.85895143 59.69637142 158.6796875 47.64453125 C163.60371625 37.78190562 169.68572135 31.59958198 179.8125 27.1875 C189.37686826 24.0246297 198.59800299 24.62815286 208 28 C216.25297714 32.27932148 220.97552069 39.40161118 224 48 C226.84401277 59.37605107 224.50849212 70.86452418 219 81.0625 C211.90588612 92.37473564 202.69854535 99.28753693 191.40625 105.90625 C188.7514911 107.53807428 187.07202904 108.79591448 185 111 C195.96449402 123.63704396 210.93047503 132.18752411 226 139 C227.06081787 139.51409424 228.12163574 140.02818848 229.21459961 140.55786133 C233.12151886 142.21942358 236.94424791 142.54841405 241.15234375 142.6953125 C242.31728111 142.75197586 242.31728111 142.75197586 243.50575256 142.80978394 C245.98261726 142.92727285 248.45981669 143.02646543 250.9375 143.125 C252.53325871 143.19801387 254.1289631 143.27222511 255.72460938 143.34765625 C259.04634208 143.50210806 262.36831327 143.64468949 265.69091797 143.77905273 C269.30031769 143.92550886 272.90817183 144.09104051 276.51611328 144.26977539 C291.67201531 144.9987313 306.80908853 145.18772735 321.98144531 145.18530273 C324.66055019 145.18522132 327.33948461 145.1922141 330.01855469 145.20581055 C343.66890645 145.27384621 357.26023804 145.19059318 370.875 144.11328125 C371.89198975 144.03554977 372.90897949 143.9578183 373.95678711 143.87773132 C374.87596924 143.79473282 375.79515137 143.71173431 376.7421875 143.6262207 C377.94657471 143.51803764 377.94657471 143.51803764 379.17529297 143.40766907 C379.77744629 143.27313828 380.37959961 143.13860748 381 143 C381.33 142.34 381.66 141.68 382 141 C381.24976563 140.70867187 380.49953125 140.41734375 379.7265625 140.1171875 C363.08460806 133.45202187 351.52734432 124.9491637 344.1875 108.1875 C340.52034885 97.2519235 341.5349909 85.57905314 346.29296875 75.171875 C351.41117055 66.00576561 357.09749801 61.67177168 367.1484375 58.69140625 C375.45631051 56.67703156 382.98305422 58.84275134 390.375 62.8125 C395.94623921 67.45519934 397.75368639 72.24970155 398.80859375 79.25390625 C399.18905962 84.71242676 398.02623311 89.00499462 394.625 93.375 C390.91020724 97.08979276 388.30951125 98.28824571 383.0625 98.3125 C378.91033075 98.22688826 376.26549633 97.75526253 373 95 C370.70986347 91.5647952 370.82157027 90.014669 371 86 C371.598125 86.309375 372.19625 86.61875 372.8125 86.9375 C375.08956772 88.10209704 375.08956772 88.10209704 378 89 C380.16715557 88.12516085 380.16715557 88.12516085 382 87 C381.89386164 84.54775306 381.89386164 84.54775306 381 82 C378.95488083 80.27922173 378.95488083 80.27922173 376 80 C371.5534624 80.79049557 368.11110655 82.46483098 365.125 85.875 C361.21499091 91.62501337 360.28393473 96.12808332 361 103 C363.1726282 113.32985954 370.7889558 120.45962792 379.17578125 126.21484375 C391.17303159 133.79816796 406.22536887 139.25807236 420.58813477 136.50366211 C423.55918235 135.77412775 426.49718364 134.97002706 429.4375 134.125 C431.06981567 133.65852051 431.06981567 133.65852051 432.73510742 133.18261719 C468.01957287 122.76739953 506.20594232 104.92274274 525.7421875 72.0703125 C533.7802766 56.99389663 536.95421964 40.09397229 532.5625 23.375 C531.72564384 20.42009827 531.72564384 20.42009827 530 18 C527.58618859 17.90123028 525.20099612 17.86821292 522.78666592 17.87695217 C522.01899042 17.87579833 521.25131492 17.87464448 520.46037653 17.87345567 C517.85494652 17.87078181 515.24957673 17.87531745 512.64414978 17.87974548 C510.77062721 17.87930994 508.8971047 17.87843534 507.02358252 17.87715632 C501.84951966 17.87490807 496.67547729 17.87893712 491.50141704 17.88393438 C485.9315121 17.88823399 480.36160841 17.8867928 474.79170227 17.8860321 C465.1329057 17.88550656 455.47411585 17.88865656 445.81532097 17.89426994 C431.85014978 17.9023808 417.88498186 17.90499974 403.91980857 17.90625793 C381.26481492 17.90844911 358.60982547 17.9151024 335.95483398 17.92456055 C313.94148782 17.93374023 291.92814262 17.94082617 269.91479492 17.94506836 C269.23662506 17.94519989 268.55845521 17.94533141 267.85973475 17.94546692 C261.04947081 17.94678541 254.23920686 17.94806123 247.42894291 17.94930578 C190.28595944 17.9597525 133.14297988 17.97740392 76 18 Z M562 18 C556.09014786 37.20701946 556.59841037 52.47499351 565.82763672 70.33544922 C568.72576184 75.71358792 571.84278482 80.49635022 576 85 C576.48210938 85.52303711 576.96421875 86.04607422 577.4609375 86.58496094 C585.27257758 94.96191708 593.23695329 101.95453546 603 108 C603.62181152 108.39638672 604.24362305 108.79277344 604.88427734 109.20117188 C621.69848528 119.88029725 639.97320708 127.25965331 659 133 C659.68884277 133.21027832 660.37768555 133.42055664 661.08740234 133.63720703 C677.10965215 138.45877041 691.25366356 137.46904096 706.5 130.1875 C717.19919415 124.3329478 727.43678094 116.15686504 731 104 C731.89314055 97.32653407 731.50570099 92.18900306 727.4921875 86.65625 C724.57473172 83.41802683 721.4975061 81.54786808 717.4375 80.0625 C714.20674689 79.97966018 712.58551981 81.15320014 710 83 C710.33 84.65 710.66 86.3 711 88 C712.79199472 88.78282648 712.79199472 88.78282648 715 89 C716.36733028 88.04701223 717.70264493 87.04625409 719 86 C719.99 86 720.98 86 722 86 C721.71998862 90.01349645 721.24236211 91.72035142 718.5625 94.8125 C714.49104033 98.28813631 711.76636341 98.34875884 706.5390625 98.2734375 C701.3098265 97.71028901 698.80699427 94.99812449 695.625 91.0625 C692.90598643 85.73919916 693.19094634 79.78509166 694 74 C696.24556709 67.62548696 701.21251582 63.25813924 707 60 C715.45028117 56.64568992 723.78596544 57.5549902 732 61 C740.31920928 65.96584019 745.7377924 72.95919656 748.6953125 82.1640625 C751.39174475 92.91181357 750.53405042 103.91274442 745.55859375 113.890625 C737.44048872 127.37685052 725.92561358 136.12047248 711 141 C711.33 141.66 711.66 142.32 712 143 C713.820658 143.4670255 713.820658 143.4670255 716.05444336 143.62402344 C716.93048721 143.70670471 717.80653107 143.78938599 718.7091217 143.87457275 C720.16601662 143.99079987 720.16601662 143.99079987 721.65234375 144.109375 C722.67359848 144.19346619 723.69485321 144.27755737 724.74705505 144.36419678 C737.65203659 145.3246426 750.56820678 145.30856917 763.5016861 145.25734329 C765.59103278 145.24989833 767.68035646 145.24628778 769.76971436 145.24362183 C794.15498221 145.20621789 818.49821333 144.58506064 842.84295654 143.12280273 C844.91132488 143.00504837 846.97956291 142.90990504 849.04931641 142.8203125 C855.6687636 142.47649068 861.17111238 141.84273718 867.125 138.875 C867.79184814 138.56151611 868.45869629 138.24803223 869.14575195 137.92504883 C883.32887852 131.13339232 896.22726808 122.52431787 907 111 C904.09865977 107.83179121 901.2904536 105.92952602 897.5 103.9375 C887.30334435 98.11618192 878.77050002 90.30996003 873 80 C872.61328125 79.3915625 872.2265625 78.783125 871.828125 78.15625 C866.72789589 69.43411905 866.12756968 58.52756394 868.18359375 48.81640625 C870.87194067 39.54225251 875.35880245 32.75733724 883.87109375 27.94140625 C893.79832281 23.62791171 905.01948386 24.35592196 915 28 C924.97753483 33.21584234 931.47990107 41.37233291 935 52 C939.33982898 68.49135013 935.65949908 83.22810892 928 98 C928 98.66 928 99.32 928 100 C941.85968381 103.40020942 941.85968381 103.40020942 956 105 C957.47146484 105.07734375 957.47146484 105.07734375 958.97265625 105.15625 C973.30261872 105.55849456 987.63233627 103.45203442 1001.25 99 C1002.01860352 98.7510498 1002.78720703 98.50209961 1003.57910156 98.24560547 C1005.93123047 97.45542296 1005.93123047 97.45542296 1009 96 C1010.37013235 91.88960295 1009.06583255 90.44059952 1007.25 86.5625 C1000.02552032 70.44234575 998.1449507 54.05446409 1003 37 C1005.70588321 30.28025379 1009.31593347 25.09510782 1014.6796875 20.2421875 C1015.11539062 19.83226562 1015.55109375 19.42234375 1016 19 C1016 18.67 1016 18.34 1016 18 C866.18 18 716.36 18 562 18 Z M43 35 C38.72399668 40.86929118 37.02121869 46.78296192 38 54 C42.22836759 70.00900671 54.85165811 79.32401382 68 88 C70.30319171 87.13082409 70.30319171 87.13082409 71.03515625 84.26953125 C71.37417969 83.12871094 71.71320313 81.98789063 72.0625 80.8125 C72.40410156 79.68457031 72.74570312 78.55664062 73.09765625 77.39453125 C76.21191046 65.67900349 76.49260509 52.98521019 70.96875 41.9375 C67.44218781 36.40937549 62.15380999 33.05127 56 31 C50.2976046 30.46203817 47.34826015 31.23150787 43 35 Z M1024.1875 38.75 C1016.92468777 47.65066738 1016.61220193 57.70481799 1017.484375 68.79296875 C1018.14891629 75.19579467 1019.32422704 83.32422704 1024 88 C1036.55098434 80.98330797 1047.27703705 71.34553788 1053.3125 58.125 C1054.92501801 50.7953727 1054.62182237 44.59689075 1051 38 C1048.71906908 34.68897125 1046.89612202 32.22449549 1043 31 C1035.02178897 30.07943719 1029.53100749 33.03525936 1024.1875 38.75 Z M176 43 C168.2127562 50.31883815 165.40923027 59.17823266 164.90234375 69.69921875 C165.1690702 78.71457273 168.16968927 87.39584746 173 95 C173.66 95.33 174.32 95.66 175 96 C177.75483252 94.79778142 180.35438081 93.53722107 183 92.125 C183.76803955 91.71515869 184.5360791 91.30531738 185.32739258 90.88305664 C195.77673304 85.12166178 205.61219819 76.97224083 209.875 65.5 C211.72662534 59.0744192 211.74283841 53.12088849 209.09375 46.890625 C206.59308727 42.56805085 203.30708068 39.86181857 198.63671875 38.1171875 C190.15359972 36.03268858 182.80561885 37.40426894 176 43 Z M887.625 41.25 C882.59153834 46.52315031 881 51.83907495 881 59 C881.33934652 61.8155157 882.03768791 64.33636268 883 67 C883.22300781 67.63550781 883.44601562 68.27101563 883.67578125 68.92578125 C888.7267958 80.87107159 900.00339873 87.35837873 911 93 C912.08796875 93.56847656 913.1759375 94.13695312 914.296875 94.72265625 C916.80309033 96.14241457 916.80309033 96.14241457 919 96 C926.12940978 81.2927899 929.65231527 69.93907925 924.18359375 53.94921875 C920.90863447 45.78884166 916.01690226 41.66416698 908 38 C901.22772279 35.86798681 893.30036652 36.89513955 887.625 41.25 Z M181 212 C176.49165008 217.54360064 174.85905914 222.42896507 174.875 229.5625 C174.87242187 230.71878906 174.86984375 231.87507813 174.8671875 233.06640625 C174.79797384 235.93453438 174.79797384 235.93453438 176 238 C184.11264005 237.61368381 190.17262762 235.74136401 196.0859375 229.9609375 C200.18545086 225.35944291 202.49986154 222.47485564 202.40625 216.0390625 C201.82318662 213.11253286 200.18089508 211.57434579 197.76953125 209.9140625 C191.57285029 206.71312797 186.29524039 207.89258083 181 212 Z M891.0625 212.625 C889.28700396 216.59375586 889.61776316 219.91848932 891 224 C894.91282231 230.06293754 900.02425352 234.86960443 907 237 C909.99945424 237.54280295 912.95623196 237.85908481 916 238 C918.67539582 231.46014355 918.02120808 225.71361626 916 219 C913.72445919 214.47781413 911.00743116 211.16180121 906.375 209 C900.07425098 207.1331114 896.01617412 208.47030558 891.0625 212.625 Z " fill="#F5BC64" transform="translate(454,1137)"/>
<path d="M0 0 C14.19 0 28.38 0 43 0 C43 1.32 43 2.64 43 4 C42.22914062 4.13535156 41.45828125 4.27070312 40.6640625 4.41015625 C39.15972656 4.73306641 39.15972656 4.73306641 37.625 5.0625 C36.12839844 5.35833984 36.12839844 5.35833984 34.6015625 5.66015625 C31.67801406 6.79424882 31.67801406 6.79424882 30.86328125 10.10351562 C29.98709448 14.05825002 29.68342589 17.63782554 29.5859375 21.68359375 C29.55032715 22.96548584 29.5147168 24.24737793 29.47802734 25.56811523 C29.44402832 27.17501221 29.4100293 28.78190918 29.375 30.4375 C29.189375 38.1409375 29.189375 38.1409375 29 46 C45.17 46 61.34 46 78 46 C77.896875 40.1425 77.79375 34.285 77.6875 28.25 C77.66260498 26.40696289 77.63770996 24.56392578 77.61206055 22.66503906 C77.57976476 21.1985419 77.5463902 19.73206792 77.51171875 18.265625 C77.50547485 17.50878418 77.49923096 16.75194336 77.49279785 15.97216797 C77.37758279 11.75180529 77.13007977 8.98573143 74 6 C71.74842467 5.09956172 71.74842467 5.09956172 69.3125 4.75 C68.50425781 4.60046875 67.69601562 4.4509375 66.86328125 4.296875 C66.24839844 4.19890625 65.63351562 4.1009375 65 4 C65 2.68 65 1.36 65 0 C79.19 0 93.38 0 108 0 C108 1.32 108 2.64 108 4 C107.21753906 4.19335938 106.43507813 4.38671875 105.62890625 4.5859375 C104.61699219 4.84632813 103.60507813 5.10671875 102.5625 5.375 C101.04849609 5.75785156 101.04849609 5.75785156 99.50390625 6.1484375 C96.84429676 6.72573954 96.84429676 6.72573954 96 9 C95.8965987 11.57771667 95.85318849 14.12860865 95.85473633 16.70678711 C95.85137772 17.50205307 95.8480191 18.29731903 95.84455872 19.11668396 C95.835036 21.75358631 95.83310497 24.39042526 95.83203125 27.02734375 C95.82881969 28.85575894 95.8254557 30.68417386 95.82194519 32.5125885 C95.81595069 36.34848629 95.81410563 40.18436153 95.81469727 44.02026367 C95.81479893 48.94117292 95.80114364 53.86193801 95.78392506 58.78281307 C95.77281965 62.55998909 95.7707776 66.33713008 95.77130699 70.11432076 C95.77012479 71.92884379 95.76568961 73.74336766 95.75797462 75.55787468 C95.74820369 78.09329267 95.75104118 80.62839555 95.75708008 83.16381836 C95.75146057 83.916651 95.74584106 84.66948364 95.74005127 85.44512939 C95.76273158 89.18253427 95.87137786 90.80706679 98 94 C100.41607417 94.79798218 100.41607417 94.79798218 103.125 95.1875 C104.49011719 95.42533203 104.49011719 95.42533203 105.8828125 95.66796875 C106.58148437 95.77753906 107.28015625 95.88710937 108 96 C108 97.32 108 98.64 108 100 C93.81 100 79.62 100 65 100 C65 98.68 65 97.36 65 96 C66.04800781 95.83564453 66.04800781 95.83564453 67.1171875 95.66796875 C68.02726562 95.50941406 68.93734375 95.35085938 69.875 95.1875 C70.77992187 95.03667969 71.68484375 94.88585938 72.6171875 94.73046875 C75.34412478 94.16948699 75.34412478 94.16948699 77 91 C77.32460157 89.08551948 77.32460157 89.08551948 77.31884766 86.98754883 C77.33890869 86.175802 77.35896973 85.36405518 77.37963867 84.52770996 C77.39099854 83.67938599 77.4023584 82.83106201 77.4140625 81.95703125 C77.43170654 81.17372437 77.44935059 80.39041748 77.4675293 79.58337402 C77.53055041 76.65995739 77.57676887 73.73619804 77.625 70.8125 C77.810625 61.0053125 77.810625 61.0053125 78 51 C61.83 51 45.66 51 29 51 C29.12375 56.630625 29.2475 62.26125 29.375 68.0625 C29.40899902 69.82601807 29.44299805 71.58953613 29.47802734 73.40649414 C29.51327543 74.82439964 29.54920126 76.24228852 29.5859375 77.66015625 C29.60297729 78.74000793 29.60297729 78.74000793 29.62036133 79.8416748 C29.75339205 84.54823767 30.43125317 88.54670307 32 93 C35.11937998 95.54171702 39.09515485 95.54944094 43 96 C43 97.32 43 98.64 43 100 C28.81 100 14.62 100 0 100 C0 98.68 0 97.36 0 96 C0.62648438 95.86722656 1.25296875 95.73445313 1.8984375 95.59765625 C3.12433594 95.33275391 3.12433594 95.33275391 4.375 95.0625 C5.59316406 94.80146484 5.59316406 94.80146484 6.8359375 94.53515625 C9.029463 94.07669307 9.029463 94.07669307 11 93 C12.19815028 89.40554915 12.15541062 86.12100175 12.16113281 82.37915039 C12.16609772 81.60485184 12.17106262 80.83055328 12.17617798 80.03279114 C12.1907847 77.47107048 12.1975984 74.90941171 12.203125 72.34765625 C12.2088768 70.56790668 12.21463453 68.78815713 12.22039795 67.00840759 C12.23090308 63.27684236 12.23674923 59.54529864 12.24023438 55.8137207 C12.2457242 51.0307572 12.26976463 46.24807764 12.29820633 41.46520329 C12.31682142 37.78921168 12.32203766 34.11328871 12.32357025 30.43725395 C12.32659885 28.67378623 12.33463438 26.91031978 12.34775543 25.14689827 C12.36479578 22.68112617 12.36294106 20.21605111 12.35644531 17.75024414 C12.37026749 16.65679688 12.37026749 16.65679688 12.3843689 15.54125977 C12.35860096 12.42135893 12.17372248 10.3060299 10.61907959 7.56736755 C8.57837111 5.59183758 7.09101296 5.23321965 4.3125 4.75 C3.50425781 4.60046875 2.69601562 4.4509375 1.86328125 4.296875 C1.24839844 4.19890625 0.63351562 4.1009375 0 4 C0 2.68 0 1.36 0 0 Z " fill="#F5BD64" transform="translate(999,1007)"/>
<path d="M0 0 C24.9751418 -3.62327385 24.9751418 -3.62327385 32.68359375 1.93505859 C37.37830114 7.25426249 40.41867169 13.51436317 43.45263672 19.88330078 C45.78757151 24.58632658 48.68633672 28.84640183 51.625 33.1875 C52.69096612 34.82065956 53.75348119 36.45607693 54.8125 38.09375 C56.97822967 41.42769346 59.1449386 44.76099715 61.3125 48.09375 C64.54330115 53.06143896 67.77229657 58.03029782 71 63 C71.52464844 63.80759766 72.04929687 64.61519531 72.58984375 65.44726562 C74.10256029 67.7766982 75.61399637 70.10695606 77.125 72.4375 C77.57439941 73.12932373 78.02379883 73.82114746 78.48681641 74.53393555 C78.90624512 75.18144775 79.32567383 75.82895996 79.7578125 76.49609375 C80.1202002 77.05482178 80.48258789 77.6135498 80.85595703 78.18920898 C82.27591947 80.43672529 83.63478234 82.71890618 85 85 C85.04633418 75.42069735 85.08187471 65.84143325 85.10362434 56.262043 C85.1140629 51.81397799 85.12822345 47.36598964 85.15087891 42.91796875 C85.17260467 38.62563066 85.18456808 34.33336631 85.18975449 30.04097748 C85.19345072 28.40311268 85.20066849 26.76525193 85.21146011 25.12741852 C85.22597155 22.83388028 85.2279781 20.54064705 85.22705078 18.24707031 C85.231492 16.94135071 85.23593323 15.6356311 85.24050903 14.29034424 C85.01522273 11.20825836 84.74035056 9.51360312 83 7 C79.19092943 4.93221883 75.26726447 4.50203111 71 4 C71 2.68 71 1.36 71 0 C81.89 0 92.78 0 104 0 C104 1.32 104 2.64 104 4 C103.30132813 4.15855469 102.60265625 4.31710937 101.8828125 4.48046875 C100.97273437 4.71378906 100.06265625 4.94710937 99.125 5.1875 C98.22007812 5.40792969 97.31515625 5.62835937 96.3828125 5.85546875 C93.88575325 6.78111015 93.88575325 6.78111015 92.8710022 8.93363953 C91.61265375 13.36365123 91.69142823 17.6213155 91.68115234 22.20629883 C91.67110672 23.23115387 91.6610611 24.25600891 91.65071106 25.31192017 C91.6198627 28.69361825 91.60283911 32.07523709 91.5859375 35.45703125 C91.56722721 37.80401797 91.5476539 40.15099796 91.5272522 42.49797058 C91.47591047 48.67105133 91.43629552 54.8441539 91.39910889 61.01733398 C91.35908215 67.3182516 91.30798371 73.61907831 91.2578125 79.91992188 C91.16102897 92.27988408 91.07663182 104.63989758 91 117 C88.60974121 117.11103821 88.60974121 117.11103821 86 117 C84.24414062 115.22338867 84.24414062 115.22338867 82.65625 112.73046875 C82.05941406 111.81313965 81.46257812 110.89581055 80.84765625 109.95068359 C80.23792969 108.97695801 79.62820313 108.00323242 79 107 C78.10087891 105.61482178 78.10087891 105.61482178 77.18359375 104.20166016 C75.27041613 101.25014701 73.38339675 98.2830951 71.5 95.3125 C66.10715795 86.84532824 60.68033365 78.40267714 55.1875 70 C54.56584961 69.04891357 53.94419922 68.09782715 53.30371094 67.11791992 C52.09816435 65.2735873 50.89259863 63.4292672 49.68701172 61.58496094 C45.8815502 55.75395855 42.10600728 49.90357753 38.328125 44.0546875 C36.92864529 41.88961006 35.52706623 39.72590327 34.125 37.5625 C33.64385742 36.81983887 33.16271484 36.07717773 32.66699219 35.31201172 C31.76691277 33.92281264 30.86655452 32.53379414 29.96582031 31.14501953 C27.40272983 27.18739374 24.86135734 23.2164732 22.33105469 19.23779297 C21.70575867 18.25471161 21.08046265 17.27163025 20.43621826 16.25875854 C19.96226624 15.51336823 19.48831421 14.76797791 19 14 C18.953583 25.07482371 18.91808323 36.14962414 18.89637566 47.22452545 C18.88595516 52.36749212 18.87182763 57.51039205 18.84912109 62.65332031 C18.82733089 67.61999667 18.81541834 72.58660898 18.81024551 77.55332947 C18.80656084 79.44466662 18.79936565 81.33600042 18.78853989 83.22731018 C18.77394284 85.88403803 18.77202548 88.54050389 18.77294922 91.19726562 C18.76575867 91.97266693 18.75856812 92.74806824 18.75115967 93.54696655 C18.77034083 98.67213038 19.41403042 103.10801442 21 108 C24.78979107 110.67008007 28.43656074 111.45673342 33 112 C33 113.32 33 114.64 33 116 C22.11 116 11.22 116 0 116 C0 114.68 0 113.36 0 112 C0.61488281 111.90203125 1.22976563 111.8040625 1.86328125 111.703125 C6.85528231 110.86595199 6.85528231 110.86595199 11 108.1875 C13.29472174 103.1677962 13.14839751 97.98233298 13.14526367 92.55712891 C13.14862228 91.71908218 13.1519809 90.88103546 13.15544128 90.01759338 C13.16492119 87.25390124 13.16689289 84.49026988 13.16796875 81.7265625 C13.17118331 79.79991633 13.17454753 77.87327041 13.17805481 75.94662476 C13.18403861 71.91004877 13.18589547 67.87349417 13.18530273 63.83691406 C13.18520114 58.67323035 13.19885425 53.50968421 13.21607494 48.3460331 C13.22721174 44.36710993 13.22922143 40.38821984 13.22869301 36.40928268 C13.22987055 34.50596009 13.23427964 32.60263657 13.24202538 30.69932938 C13.25185945 28.03334251 13.24893379 25.36765214 13.24291992 22.70166016 C13.24853943 21.92116806 13.25415894 21.14067596 13.25994873 20.33653259 C13.23249422 15.5294232 12.62707451 11.53981411 11 7 C7.88062002 4.45828298 3.90484515 4.45055906 0 4 C0 2.68 0 1.36 0 0 Z " fill="#F5BD64" transform="translate(725,991)"/>
<path d="M0 0 C27.38026486 -2.18907407 27.38026486 -2.18907407 34.28759766 1.08398438 C37.63798452 4.0037381 39.25262031 7.80630464 40.96240234 11.83496094 C42.91922748 15.91804925 45.7842342 19.39768096 48.5 23 C49.61816367 24.53907184 50.73280034 26.0807128 51.84375 27.625 C52.38 28.3675 52.91625 29.11 53.46875 29.875 C56.05134064 33.45900334 58.61549852 37.05607501 61.17822266 40.65429688 C63.56194211 43.99749482 65.95932042 47.33039204 68.3671875 50.65625 C68.94855469 51.45933594 69.52992187 52.26242187 70.12890625 53.08984375 C71.26331286 54.65568017 72.39867581 56.22082436 73.53515625 57.78515625 C74.05722656 58.50574219 74.57929687 59.22632813 75.1171875 59.96875 C75.80723877 60.91911133 75.80723877 60.91911133 76.51123047 61.88867188 C78.39349396 64.55804129 80.19667263 67.27686438 82 70 C82.0508063 62.29535749 82.08577834 54.59075838 82.10986328 46.88598633 C82.11990645 44.26617824 82.13354352 41.64638131 82.15087891 39.02661133 C82.17520085 35.25599405 82.18650019 31.4855253 82.1953125 27.71484375 C82.20563507 26.54791489 82.21595764 25.38098602 82.22659302 24.17869568 C82.22738345 18.41975174 82.12908235 13.39118789 80 8 C78.26308835 6.58419508 78.26308835 6.58419508 76.125 6.125 C75.44695312 5.92132812 74.76890625 5.71765625 74.0703125 5.5078125 C73.38710937 5.34023438 72.70390625 5.17265625 72 5 C71.25492188 4.81179688 70.50984375 4.62359375 69.7421875 4.4296875 C69.16726563 4.28789063 68.59234375 4.14609375 68 4 C68 2.68 68 1.36 68 0 C78.89 0 89.78 0 101 0 C101 1.32 101 2.64 101 4 C99.95199219 4.27263672 99.95199219 4.27263672 98.8828125 4.55078125 C97.97273438 4.80214844 97.06265625 5.05351563 96.125 5.3125 C94.76761719 5.67794922 94.76761719 5.67794922 93.3828125 6.05078125 C90.67886681 6.86669852 90.67886681 6.86669852 89 10 C87.99597836 15.17602072 87.83441834 20.25589181 87.79467773 25.50561523 C87.78477814 26.32593735 87.77487854 27.14625946 87.76467896 27.99143982 C87.73330115 30.68046261 87.70840118 33.36950301 87.68359375 36.05859375 C87.66300369 37.9318943 87.6420067 39.80519042 87.62062073 41.67848206 C87.56561186 46.59223831 87.51610975 51.50603502 87.46777344 56.41986084 C87.41740307 61.44075083 87.36179835 66.4615826 87.30664062 71.48242188 C87.19931843 81.32156476 87.0978166 91.16075835 87 101 C82.19433594 101.1708374 82.19433594 101.1708374 80.4453125 99.63330078 C80.00960938 98.99376465 79.57390625 98.35422852 79.125 97.6953125 C78.62162109 96.97601562 78.11824219 96.25671875 77.59960938 95.515625 C77.07173828 94.72671875 76.54386719 93.9378125 76 93.125 C74.84418918 91.46063243 73.68792675 89.7965784 72.53125 88.1328125 C71.94472656 87.27719727 71.35820313 86.42158203 70.75390625 85.54003906 C68.06590266 81.64722317 65.28210474 77.82581657 62.5 74 C61.416131 72.50038702 60.33279934 71.00038552 59.25 69.5 C58.71375 68.7575 58.1775 68.015 57.625 67.25 C52.75 60.5 52.75 60.5 51.12451172 58.24926758 C50.04287732 56.75165746 48.96117177 55.25409874 47.87939453 53.7565918 C45.14447705 49.97044813 42.41086281 46.18337545 39.6796875 42.39453125 C39.12603516 41.62689453 38.57238281 40.85925781 38.00195312 40.06835938 C36.9767307 38.64683248 35.95193157 37.22500012 34.92773438 35.80273438 C29.66188562 28.50346865 24.32739326 21.25438614 19 14 C18.95363527 23.43164785 18.91810976 32.8632564 18.89637566 42.2949934 C18.88594376 46.67464922 18.87179539 51.05422699 18.84912109 55.43383789 C18.82737156 59.66134215 18.8154269 63.88877139 18.81024551 68.11632729 C18.80655355 69.72824598 18.79934407 71.34016063 18.78853989 72.95204735 C18.77399685 75.21185516 18.77202322 77.471354 18.77294922 79.73120117 C18.76628738 81.65980232 18.76628738 81.65980232 18.75949097 83.62736511 C19.07414397 88.03971371 19.85728438 90.85728438 23 94 C25.42715206 94.67940467 25.42715206 94.67940467 28.125 95.125 C29.03507812 95.29257813 29.94515625 95.46015625 30.8828125 95.6328125 C31.93082031 95.81457031 31.93082031 95.81457031 33 96 C33 97.32 33 98.64 33 100 C22.11 100 11.22 100 0 100 C0 98.68 0 97.36 0 96 C0.61488281 95.90203125 1.22976563 95.8040625 1.86328125 95.703125 C2.67152344 95.55359375 3.47976563 95.4040625 4.3125 95.25 C5.51326172 95.04117187 5.51326172 95.04117187 6.73828125 94.828125 C9.72598348 93.73418221 10.4295289 92.77307019 12 90 C12.27995357 87.30637099 12.39002719 84.84863776 12.35644531 82.15795898 C12.35848969 81.37215454 12.36053406 80.5863501 12.36264038 79.7767334 C12.36564506 77.18294904 12.34718159 74.58980241 12.328125 71.99609375 C12.32506682 70.19295916 12.32319115 68.38982221 12.32244873 66.58668518 C12.3178477 62.8097325 12.30342879 59.03299328 12.28125 55.25610352 C12.25294761 50.41150835 12.24203614 45.56708114 12.2375679 40.72241116 C12.23341392 37.00013037 12.22359693 33.27788362 12.21169281 29.55562019 C12.20599077 27.76901586 12.20123184 25.98240826 12.19742584 24.19579887 C12.19056123 21.70135612 12.17692827 19.20704668 12.16113281 16.71264648 C12.16001495 15.97230667 12.15889709 15.23196686 12.15774536 14.4691925 C12.13175917 11.37509364 11.9862594 8.95877821 11 6 C7.37 5.34 3.74 4.68 0 4 C0 2.68 0 1.36 0 0 Z " fill="#F5BD64" transform="translate(1175,1007)"/>
<path d="M0 0 C2.68985819 2.68985819 3.30045151 4.4104627 3.5625 8.125 C3.46482535 13.21222153 1.64294856 15.98516408 -1.58203125 19.80859375 C-4.30402591 22.41322214 -7.2818482 24.49737238 -10.375 26.625 C-14.38311522 29.19082106 -14.38311522 29.19082106 -16.49609375 33.16015625 C-16.31785733 35.12834139 -16.12785964 37.09545039 -15.9375 39.0625 C-20.41145054 47.40346981 -30.0749037 51.47932898 -38.5625 54.5 C-39.38169922 54.79438965 -40.20089844 55.0887793 -41.04492188 55.39208984 C-59.6106066 61.91109726 -78.57210606 65.7542637 -97.9375 69.0625 C-97.9375 68.4025 -97.9375 67.7425 -97.9375 67.0625 C-96.98834717 66.64907349 -96.98834717 66.64907349 -96.02001953 66.22729492 C-85.00756117 61.39627344 -74.09431635 56.51873254 -63.8125 50.25 C-63.09852051 49.81905029 -62.38454102 49.38810059 -61.64892578 48.9440918 C-57.14036883 46.11229329 -53.41278934 43.11700423 -49.9375 39.0625 C-49.9375 37.7425 -49.9375 36.4225 -49.9375 35.0625 C-66.28558608 34.13308986 -83.69308615 53.47917645 -95.125 63.625 C-96.39786688 64.76857392 -97.66952945 65.91349953 -98.9375 67.0625 C-99.2675 66.4025 -99.5975 65.7425 -99.9375 65.0625 C-98.55758273 62.51542804 -97.12754104 60.11805828 -95.5625 57.6875 C-95.10496338 56.96796143 -94.64742676 56.24842285 -94.17602539 55.50708008 C-90.06317486 49.11380906 -85.64918474 43.03118897 -80.9375 37.0625 C-80.20789062 36.12792969 -79.47828125 35.19335938 -78.7265625 34.23046875 C-60.71736466 11.63998374 -60.71736466 11.63998374 -48.625 10.1875 C-45.54012811 9.9647306 -43.92339982 10.06720006 -40.9375 11.0625 C-38.4715252 9.79688705 -38.4715252 9.79688705 -35.875 7.9375 C-25.82764161 1.30544921 -11.78199888 -7.77110565 0 0 Z " fill="#F5BD64" transform="translate(1297.9375,1200.9375)"/>
<path d="M0 0 C0.86625 0.60457031 1.7325 1.20914062 2.625 1.83203125 C5.90251759 3.70258816 8.56598457 3.2208858 12.25 2.9375 C21.57534741 3.55918983 27.56502197 9.94663896 34 16.1875 C34.54930176 16.7134375 35.09860352 17.239375 35.66455078 17.78125 C39.76929786 21.77930734 43.35154217 25.95359266 46.75 30.5625 C47.25442627 31.24151367 47.75885254 31.92052734 48.27856445 32.62011719 C52.07260319 37.78903008 55.68057182 43.07020336 59.1875 48.4375 C59.89181152 49.50943604 59.89181152 49.50943604 60.61035156 50.60302734 C61.04186523 51.27543457 61.47337891 51.9478418 61.91796875 52.640625 C62.48680786 53.52476074 62.48680786 53.52476074 63.06713867 54.42675781 C64.07276583 56.32484289 64.56393026 58.09091125 65 60.1875 C64.071875 59.383125 63.14375 58.57875 62.1875 57.75 C41.05794878 37.72427523 41.05794878 37.72427523 15 28.1875 C15.689919 33.32259332 17.36978588 35.05471946 21.28125 38.25 C34.05616099 47.35395955 48.84862422 53.5824086 63 60.1875 C63 60.8475 63 61.5075 63 62.1875 C-2.03477749 52.38274553 -2.03477749 52.38274553 -16.125 35.9375 C-18.82527516 31.97709643 -19.19984642 29.98381417 -19 25.1875 C-18.67 24.5275 -18.34 23.8675 -18 23.1875 C-18.71027344 22.94386719 -19.42054688 22.70023438 -20.15234375 22.44921875 C-26.44869548 19.65947718 -32.94462155 14.46819873 -36.6875 8.625 C-38.35348361 4.26170958 -38.59948912 1.83354065 -38 -2.8125 C-36.15100105 -6.08380584 -34.69019667 -7.45096841 -31.375 -9.1875 C-19.79376696 -11.33217279 -9.49427292 -6.23259194 0 0 Z " fill="#F5BD64" transform="translate(737,1207.8125)"/>
<path d="M0 0 C30.69 0 61.38 0 93 0 C93 11.22 93 22.44 93 34 C91.35 34 89.7 34 88 34 C87.82984375 32.9378125 87.6596875 31.875625 87.484375 30.78125 C85.82945463 19.80525514 85.82945463 19.80525514 81 10 C75.52569152 6.11222345 70.05924556 5.36751091 63.5 5.25 C62.26636719 5.20552734 62.26636719 5.20552734 61.0078125 5.16015625 C59.00571467 5.09031563 57.00285844 5.04279612 55 5 C55.08439588 15.60524062 55.17927648 26.21033072 55.28752708 36.81535625 C55.3374636 41.73974988 55.38379396 46.66412234 55.421875 51.58862305 C55.45876109 56.34142207 55.50513024 61.09404278 55.55806351 65.84668922 C55.57658976 67.65952233 55.59170425 69.47239364 55.60334396 71.28528404 C55.62023665 73.82538468 55.64927894 76.36507856 55.68115234 78.9050293 C55.68331253 79.65381348 55.68547272 80.40259766 55.68769836 81.17407227 C55.77121458 86.38722452 56.23967952 90.23967952 60 94 C62.88717605 94.6837613 62.88717605 94.6837613 66.125 95.125 C67.22070312 95.29257813 68.31640625 95.46015625 69.4453125 95.6328125 C70.70988281 95.81457031 70.70988281 95.81457031 72 96 C72 97.32 72 98.64 72 100 C55.5 100 39 100 22 100 C22 98.68 22 97.36 22 96 C23.24716797 95.83564453 23.24716797 95.83564453 24.51953125 95.66796875 C25.60621094 95.50941406 26.69289063 95.35085938 27.8125 95.1875 C28.89144531 95.03667969 29.97039063 94.88585938 31.08203125 94.73046875 C34.1414765 93.96458353 35.25351378 93.58201451 37 91 C38.14381567 86.69846488 38.17091156 82.41774374 38.20532227 77.99682617 C38.21522186 77.20605682 38.22512146 76.41528748 38.23532104 75.60055542 C38.26679926 72.99805654 38.29163914 70.39553943 38.31640625 67.79296875 C38.3369876 65.9840702 38.35798438 64.17517634 38.37937927 62.36628723 C38.43447797 57.61361491 38.4839409 52.86090007 38.53222656 48.1081543 C38.58253085 43.25500724 38.63817025 38.40192166 38.69335938 33.54882812 C38.80079163 24.03260465 38.90226957 14.51632771 39 5 C36.14447056 5.08763 33.29181011 5.19459007 30.4375 5.3125 C29.63763672 5.33505859 28.83777344 5.35761719 28.01367188 5.38085938 C22.15139973 5.64406343 16.92851966 6.4683358 12.328125 10.4453125 C7.79952605 17.50073841 7.13857087 25.85412712 6 34 C4.35 34 2.7 34 1 34 C0.67 22.78 0.34 11.56 0 0 Z " fill="#F5BD64" transform="translate(894,1007)"/>
<path d="M0 0 C14.19 0 28.38 0 43 0 C43 1.32 43 2.64 43 4 C39.37 4.66 35.74 5.32 32 6 C30.98545689 10.05817243 30.85219534 13.70234497 30.85473633 17.84204102 C30.85137772 18.62784546 30.8480191 19.4136499 30.84455872 20.2232666 C30.83507106 22.81682928 30.83310697 25.4103273 30.83203125 28.00390625 C30.82881811 29.80704271 30.825454 31.61017891 30.82194519 33.41331482 C30.81596008 37.19018153 30.81410475 40.96702537 30.81469727 44.74389648 C30.81479907 49.5885208 30.80112493 54.43299917 30.78392506 59.27758884 C30.77282176 62.99985939 30.77077751 66.72209439 30.77130699 70.44437981 C30.7701252 72.23099205 30.76569229 74.01760516 30.75797462 75.80420113 C30.74820459 78.29869039 30.75104041 80.79285937 30.75708008 83.28735352 C30.74865082 84.39786324 30.74865082 84.39786324 30.74005127 85.5308075 C30.76295821 89.24382184 30.88367194 90.82550791 33 94 C35.41607417 94.79798218 35.41607417 94.79798218 38.125 95.1875 C39.49011719 95.42533203 39.49011719 95.42533203 40.8828125 95.66796875 C41.58148437 95.77753906 42.28015625 95.88710937 43 96 C43 97.32 43 98.64 43 100 C28.81 100 14.62 100 0 100 C0 98.68 0 97.36 0 96 C1.04800781 95.83564453 1.04800781 95.83564453 2.1171875 95.66796875 C3.02726563 95.50941406 3.93734375 95.35085938 4.875 95.1875 C5.77992188 95.03667969 6.68484375 94.88585938 7.6171875 94.73046875 C10.34412478 94.16948699 10.34412478 94.16948699 12 91 C12.18916398 88.35761162 12.26268256 85.8217179 12.24291992 83.1796875 C12.24481827 82.38427551 12.24671661 81.58886353 12.24867249 80.76934814 C12.25237979 78.13779877 12.2416765 75.50652488 12.23046875 72.875 C12.22927677 71.04801465 12.22882383 69.22102869 12.2290802 67.39404297 C12.2275154 63.56408861 12.21922608 59.73422772 12.20581055 55.90429688 C12.18882076 50.99129722 12.18499623 46.07840034 12.18575573 41.16537476 C12.18548399 37.39248674 12.18000208 33.61962125 12.17275429 29.84674072 C12.1695688 28.03501557 12.16760049 26.22328786 12.16686058 24.41156006 C12.16469576 21.88109984 12.15594839 19.35074922 12.14526367 16.8203125 C12.14571686 16.0690509 12.14617004 15.31778931 12.14663696 14.54376221 C12.12734903 11.42444536 11.99420139 8.98260417 11 6 C7.37 5.34 3.74 4.68 0 4 C0 2.68 0 1.36 0 0 Z " fill="#F5BD64" transform="translate(840,1007)"/>
<path d="M0 0 C13.86 0 27.72 0 42 0 C42 1.32 42 2.64 42 4 C41.30132813 4.15855469 40.60265625 4.31710937 39.8828125 4.48046875 C38.97273438 4.71378906 38.06265625 4.94710937 37.125 5.1875 C36.22007813 5.40792969 35.31515625 5.62835937 34.3828125 5.85546875 C31.85092464 6.78451578 31.85092464 6.78451578 30.86625671 9.09924316 C29.81266505 12.62731188 29.72757134 15.91143946 29.75708008 19.55664062 C29.75518173 20.30036423 29.75328339 21.04408783 29.75132751 21.81034851 C29.74763483 24.25909094 29.75830305 26.7075341 29.76953125 29.15625 C29.77072411 30.86348435 29.77117599 32.57071936 29.7709198 34.2779541 C29.77248211 37.85217409 29.78075215 41.42629357 29.79418945 45.00048828 C29.81117882 49.57693435 29.81500359 54.15327005 29.81424427 58.72974396 C29.81451649 62.25393727 29.82000608 65.77810656 29.82724571 69.30229187 C29.83042281 70.98955605 29.83239754 72.67682295 29.83313942 74.36408997 C29.83531316 76.72389335 29.84407971 79.08358097 29.85473633 81.44335938 C29.85405655 82.48462227 29.85405655 82.48462227 29.85336304 83.54692078 C29.87774552 87.24882725 30.26378981 90.31894903 31 94 C34.63 94.66 38.26 95.32 42 96 C42 97.32 42 98.64 42 100 C28.14 100 14.28 100 0 100 C0 98.68 0 97.36 0 96 C5.445 95.01 5.445 95.01 11 94 C11.86472176 89.67639121 12.14811115 85.80503296 12.14526367 81.44335938 C12.14862228 80.69963577 12.1519809 79.95591217 12.15544128 79.18965149 C12.16490937 76.74100049 12.16689209 74.29241814 12.16796875 71.84375 C12.17118345 70.13651502 12.17454769 68.42928031 12.17805481 66.7220459 C12.18403516 63.14786134 12.18589576 59.57370093 12.18530273 55.99951172 C12.185201 51.42302934 12.19886965 46.84670172 12.21607494 42.27025604 C12.2271987 38.74606618 12.22922185 35.22191375 12.22869301 31.69770813 C12.22987192 30.01043666 12.23428873 28.32316418 12.24202538 26.63591003 C12.25183587 24.27604333 12.24894347 21.91651288 12.24291992 19.55664062 C12.25134918 18.51537773 12.25134918 18.51537773 12.25994873 17.45307922 C12.23465431 13.54817363 11.86872769 10.46014294 10 7 C7.62122565 5.75607124 7.62122565 5.75607124 4.875 5.1875 C3.50988281 4.83751953 3.50988281 4.83751953 2.1171875 4.48046875 C1.41851563 4.32191406 0.71984375 4.16335938 0 4 C0 2.68 0 1.36 0 0 Z " fill="#F5BD64" transform="translate(1120,1007)"/>
<path d="M0 0 C12.04667611 -0.6920431 21.52019457 2.41892753 31 10 C42.65528373 21.63695781 49.71365531 37.59910519 51 54 C34.79634006 52.24895933 20.6659322 46.46152956 9.953125 33.7890625 C3.70841414 24.8716154 -2 14.0760854 -2 3 C1.36335594 4.45745424 3.54534005 6.31117854 6.109375 8.9140625 C6.86347656 9.67460938 7.61757812 10.43515625 8.39453125 11.21875 C9.17183594 12.0128125 9.94914062 12.806875 10.75 13.625 C11.54277344 14.42679688 12.33554688 15.22859375 13.15234375 16.0546875 C15.10614493 18.03202846 17.05512103 20.01388909 19 22 C17.22421785 13.77060958 8.28813667 8.4889226 1.90625 3.6640625 C0.96265625 2.84035156 0.96265625 2.84035156 0 2 C0 1.34 0 0.68 0 0 Z " fill="#F5BD64" transform="translate(1437,1327)"/>
<path d="M0 0 C-1.52945826 3.93924423 -3.94357229 5.76944153 -7.25 8.3125 C-11.76685305 11.90936327 -15.521339 15.39312462 -19 20 C-19 20.66 -19 21.32 -19 22 C-18.5875 21.57589844 -18.175 21.15179687 -17.75 20.71484375 C-11.5197587 14.38725493 -4.84525079 8.6473319 2 3 C1.31339185 16.73216309 -5.72195812 30.89172324 -15.796875 40.30859375 C-26.41318886 48.45906166 -37.69411609 52.92694485 -51 54 C-50.51476479 40.65603171 -44.84488856 27.62795617 -37 17 C-35.8553125 15.39125 -35.8553125 15.39125 -34.6875 13.75 C-25.19559748 4.03735556 -13.63802135 -1.08621409 0 0 Z " fill="#F5BD64" transform="translate(563,1327)"/>
<path d="M0 0 C1.82421875 1.65234375 1.82421875 1.65234375 3 3 C-8.10326643 15.46749029 -22.013806 21.07241471 -38.5 22.25 C-50.04536723 22.02625257 -60.08691907 18.70417506 -70 13 C-70 12.67 -70 12.34 -70 12 C-60.43 10.68 -50.86 9.36 -41 8 C-41 7.67 -41 7.34 -41 7 C-50.86943894 6.51461776 -60.3113851 8.32886314 -70 10 C-67.63766801 2.8508374 -61.55238328 -1.84587814 -55.0625 -5.375 C-37.63033887 -13.13025279 -16.32032002 -8.63380114 0 0 Z " fill="#F5BD64" transform="translate(1275,637)"/>
<path d="M0 0 C14.23220708 5.06091118 25.86690892 18.09273922 32.3125 31.4375 C37.2064827 43.44041446 36.68876311 55.05692416 32 67 C29.38244483 65.69122242 29.3539703 64.71774356 28.4140625 61.9921875 C28.12273438 61.16976562 27.83140625 60.34734375 27.53125 59.5 C27.2321875 58.63375 26.933125 57.7675 26.625 56.875 C23.68100355 46.54992829 23.68100355 46.54992829 17 39 C20.96 47.91 24.92 56.82 29 66 C27.515 66.495 27.515 66.495 26 67 C13.26355538 59.68549566 3.06809943 47.0163466 -0.90454102 32.96020508 C-3.73342166 21.89219335 -3.51508826 12.14349324 -1 1 C-0.67 0.67 -0.34 0.34 0 0 Z " fill="#F5BD64" transform="translate(711,734)"/>
<path d="M0 0 C0 0.66 0 1.32 0 2 C-1.65234375 3.41015625 -1.65234375 3.41015625 -3.9375 5.0625 C-9.0227952 8.91279494 -13.94377343 13.05197894 -18 18 C-18 18.99 -18 19.98 -18 21 C-17.14450562 20.13665039 -17.14450562 20.13665039 -16.27172852 19.25585938 C-13.70456281 16.66800128 -11.13359218 14.08395683 -8.5625 11.5 C-7.66466797 10.59378906 -6.76683594 9.68757813 -5.84179688 8.75390625 C-4.98779297 7.89667969 -4.13378906 7.03945312 -3.25390625 6.15625 C-2.46314697 5.36025391 -1.6723877 4.56425781 -0.85766602 3.74414062 C1 2 1 2 2 2 C1.21568577 17.42484657 -6.39074327 30.34074949 -17.35546875 40.89453125 C-26.34673111 48.05301044 -39.31451929 53.94747141 -51 53 C-49.9286726 35.5016524 -41.04571702 19.25673723 -28.359375 7.4765625 C-20.23544027 0.9695274 -10.12297274 -0.71737602 0 0 Z " fill="#F5BD64" transform="translate(823,1303)"/>
<path d="M0 0 C11.42230761 -0.80945487 21.18128421 1.56098933 29.984375 9.11328125 C30.64953125 9.73589844 31.3146875 10.35851563 32 11 C32.60328125 11.55042969 33.2065625 12.10085938 33.828125 12.66796875 C43.27680218 22.30817317 51 39.42804901 51 53 C36.2360244 52.67454162 23.93122395 46.7856659 13.3125 36.75 C5.21793617 28.27534361 -1.59323233 16.03263511 -2.1328125 4.05078125 C-2.08898438 3.37402344 -2.04515625 2.69726562 -2 2 C3.06623768 6.23816537 7.80038069 10.67408963 12.4375 15.375 C13.39172852 16.33599609 13.39172852 16.33599609 14.36523438 17.31640625 C15.91250332 18.87530879 17.45736492 20.43651416 19 22 C19 17.92412524 17.74008328 17.01409161 15 14 C11.73473215 10.97555451 8.33001868 8.11962024 4.92578125 5.25390625 C3.26938982 3.85286116 1.6326856 2.4285999 0 1 C0 0.67 0 0.34 0 0 Z " fill="#F5BD64" transform="translate(1177,1303)"/>
<path d="M0 0 C1.35811183 1.18041496 2.69336834 2.3878416 4 3.625 C4.93005859 4.47384766 4.93005859 4.47384766 5.87890625 5.33984375 C7.31642272 6.70398351 8.66863112 8.15708046 10 9.625 C10 10.285 10 10.945 10 11.625 C9.21496094 11.49222656 8.42992187 11.35945312 7.62109375 11.22265625 C5.44719167 10.85722731 3.27268069 10.49540699 1.09765625 10.13671875 C-1.14464783 9.7663003 -3.38535084 9.38614641 -5.625 9 C-10.09319142 8.50353429 -14.50959825 8.54368488 -19 8.625 C-19 8.955 -19 9.285 -19 9.625 C-18.29391602 9.71064209 -17.58783203 9.79628418 -16.86035156 9.88452148 C-13.65657933 10.27458944 -10.45329125 10.66850251 -7.25 11.0625 C-6.13882813 11.19720703 -5.02765625 11.33191406 -3.8828125 11.47070312 C-2.81289063 11.60283203 -1.74296875 11.73496094 -0.640625 11.87109375 C0.34389648 11.99154053 1.32841797 12.1119873 2.34277344 12.23608398 C4.62199202 12.56967414 6.78143734 13.01512541 9 13.625 C9 14.285 9 14.945 9 15.625 C-8.81084712 23.26852144 -25.08909406 26.57539778 -43.734375 19.2109375 C-51.42348347 15.47675324 -57.97292943 10.55889045 -63 3.625 C-44.26948519 -6.4996026 -18.90120431 -14.30275695 0 0 Z " fill="#F5BD64" transform="translate(785,635.375)"/>
<path d="M0 0 C4.68475371 13.74194421 3.46211454 27.91192439 -2.453125 41.08203125 C-7.86893088 51.29821052 -16.1054283 62.19136146 -27 67 C-27.66 66.67 -28.32 66.34 -29 66 C-27.18831372 61.87464214 -25.37551369 57.74977464 -23.5625 53.625 C-23.04623047 52.449375 -22.52996094 51.27375 -21.99804688 50.0625 C-21.50498047 48.94101562 -21.01191406 47.81953125 -20.50390625 46.6640625 C-20.04830322 45.62717285 -19.5927002 44.5902832 -19.12329102 43.52197266 C-18.44576557 42.00081685 -17.74470876 40.48941753 -17 39 C-21.15674255 42.67766036 -23.2397553 46.13001755 -25.125 51.375 C-25.60591303 52.65396871 -26.08768102 53.93261627 -26.5703125 55.2109375 C-26.80137695 55.83323242 -27.03244141 56.45552734 -27.27050781 57.09667969 C-28.42338925 60.10466619 -29.71093369 63.04811443 -31 66 C-33 65 -33 65 -33.8515625 62.59375 C-37.37969722 48.48121111 -36.16441965 37.48300291 -28.796875 24.69921875 C-23.6773111 17.00874342 -10.48241885 0 0 0 Z " fill="#F5BD64" transform="translate(1289,734)"/>
</svg>
